<?xml version="1.0" encoding="UTF-8" standalone="no"?>
<!DOCTYPE svg PUBLIC "-//W3C//DTD SVG 1.1//EN" "http://www.w3.org/Graphics/SVG/1.1/DTD/svg11.dtd">
<svg width="100%" height="100%" viewBox="0 0 200 192" version="1.1" xmlns="http://www.w3.org/2000/svg" xmlns:xlink="http://www.w3.org/1999/xlink" xml:space="preserve" xmlns:serif="http://www.serif.com/" style="fill-rule:evenodd;clip-rule:evenodd;stroke-linejoin:round;stroke-miterlimit:2;">
    <g transform="matrix(1,0,0,1,-20.8014,-3.9685)">
        <g transform="matrix(1,0,0,1,-11.7612,-355.915)">
            <g id="path21" transform="matrix(1,0,0,1,15.1322,-1.13387)">
                <path d="M122.679,416.747C122.679,416.747 139.212,414.36 143,423.262C146.788,432.164 148.492,437.657 140.537,442.202C132.583,446.748 85.042,466.446 85.042,466.446C85.042,466.446 49.245,481.03 26.895,451.294C4.546,421.558 28.789,399.397 28.789,399.397C28.789,399.397 36.744,391.064 56.442,383.298C76.14,375.532 109.475,363.6 109.475,363.6C109.475,363.6 140.537,356.781 163.266,365.305C185.994,373.828 200.768,391.821 200.768,391.821C200.768,391.821 217.435,410.004 216.678,432.732C215.903,455.98 209.67,460.196 209.67,460.196C209.67,460.196 197.548,486.144 168.19,496.94C138.833,507.736 131.635,511.903 131.635,511.903L144.515,532.169C144.515,532.169 151.902,547.132 136.749,551.678C121.597,556.223 114.21,545.427 114.21,545.427L83.148,499.402L160.993,465.12C160.993,465.12 185.994,447.695 183.532,429.891C181.165,412.778 171.978,401.291 159.667,394.473C145.273,385.571 132.583,387.844 132.583,387.844C132.583,387.844 118.756,389.927 102.467,396.746C84.285,403.564 61.367,413.792 61.367,413.792C61.367,413.792 47.54,418.148 51.518,429.134C55.495,440.119 67.428,439.172 67.428,439.172L122.679,416.747Z" style="fill:rgb(51,51,51);fill-rule:nonzero;"/>
            </g>
        </g>
    </g>
</svg>
