<?xml version="1.0" encoding="UTF-8" standalone="no"?>
<!DOCTYPE svg PUBLIC "-//W3C//DTD SVG 1.1//EN" "http://www.w3.org/Graphics/SVG/1.1/DTD/svg11.dtd">
<svg width="100%" height="100%" viewBox="0 0 193 193" version="1.1" xmlns="http://www.w3.org/2000/svg" xmlns:xlink="http://www.w3.org/1999/xlink" xml:space="preserve" xmlns:serif="http://www.serif.com/" style="fill-rule:evenodd;clip-rule:evenodd;stroke-linejoin:round;stroke-miterlimit:2;">
    <g id="surface1">
        <path d="M28.512,92.383L28.758,92.504C29.488,92.871 30.957,92.813 33.094,92.383L28.512,92.383" style="fill:rgb(50,48,49);"/>
        <path d="M180.527,159.898C178.27,155.438 175.578,150.977 172.402,146.578C168.797,141.629 164.945,137.109 160.977,133.074C157.129,129.227 153.031,125.805 148.816,122.813C139.957,116.641 128.961,111.445 115.824,107.23C110.996,105.703 106.293,104.91 101.648,104.785L95.172,105.031L95.293,104.238L104.703,92.996C104.887,92.813 105.07,92.566 105.254,92.383C109.223,87.801 112.891,84.195 116.129,81.691C123.398,85.664 130.242,86.762 136.535,84.867C141.547,83.402 146.863,79.797 152.484,74.055C157.922,68.617 160.117,64.402 159.145,61.406C157.492,56.457 153.523,54.074 147.23,54.137C144.355,54.195 140.57,55.602 135.988,58.23C132.383,60.305 129.754,62.141 128.227,63.668C114.359,57.434 104.457,53.77 98.469,52.73C75.863,48.695 56.313,55.906 39.879,74.297C31.02,84.379 26.984,90.246 27.84,91.957L28.512,92.383L33.094,92.383C34.316,92.078 35.781,91.59 37.555,91.039C47.211,87.617 51.914,85.172 51.609,83.707L51.914,78.453C52.219,74.176 55.09,70.266 60.406,66.723C69.266,60.734 77.883,59.637 86.313,63.422C89,64.645 92.727,66.906 97.492,70.145C103.055,73.992 107.148,76.621 109.652,78.023C109.898,78.328 109.836,78.574 109.406,78.758C104.457,82.852 99.754,87.434 95.172,92.383C93.031,94.645 90.895,97.027 88.879,99.531L83.809,106.559C78.43,107.719 71.527,110.102 63.156,113.707C50.387,119.758 40.242,125.621 32.727,131.184C31.934,131.793 31.078,132.402 30.285,133.074C20.813,140.652 13.91,149.023 9.695,158.188L8.594,161.609C8.352,162.891 8.594,163.809 9.387,164.359C15.559,166.984 24.664,165.273 36.82,159.348C45.742,154.949 54.848,148.594 64.195,140.223C66.516,138.023 68.898,135.641 71.344,133.074C74.215,129.961 77.211,126.598 80.324,122.996L92.117,122.383C101.832,122.629 112.035,123.789 122.73,125.805C133.055,127.762 140.875,130.203 146.313,133.074C148.633,134.359 150.527,135.703 151.934,137.109C154.805,139.98 155.844,142.852 155.051,145.723L153.887,148.84C153.523,149.938 153.461,150.793 153.645,151.465C154.621,154.277 158.227,158.125 164.398,163.016C169.957,167.414 174.906,170.652 179.367,172.789C181.996,173.949 183.52,174.074 183.949,173.156C184.863,170.531 183.703,166.129 180.527,159.898ZM36.578,90.367L35.539,90.918L31.141,91.895C29.855,92.078 29.43,91.895 29.98,91.469L33.402,89.695C35.293,88.84 36.332,88.473 36.457,88.594C36.641,88.719 36.641,89.145 36.578,89.938C36.762,90 36.762,90.121 36.578,90.367ZM41.039,84.012C41.586,83.098 42.809,80.469 44.645,76.133C46.535,72.098 48.188,69.836 49.652,69.289C50.691,68.98 50.691,69.656 49.715,71.305C48.188,73.809 47.207,76.316 46.781,78.82C46.352,80.836 45.805,82.242 45.07,83.035C43.543,84.625 42.32,85.297 41.406,85.051C40.793,84.992 40.672,84.625 41.039,84.012ZM38.043,89.145C37.801,88.719 37.984,88.352 38.656,88.105L41.957,86.762C42.871,86.09 43.422,86.027 43.543,86.457C43.727,86.887 43.297,87.313 42.32,87.68C39.695,89.023 38.227,89.512 38.043,89.145ZM48.918,84.93L45.742,86.887C44.703,87.68 43.113,88.473 40.855,89.27L39.695,89.391L41.832,88.41C43.48,87.617 44.52,86.824 44.887,86.152C45.191,85.664 46.109,84.867 47.699,83.828C49.285,82.789 50.141,82.301 50.266,82.426C50.938,82.973 50.508,83.828 48.918,84.93ZM71.953,60.246C67.617,61.895 63.828,63.668 60.711,65.684C58.328,67.211 56.926,67.945 56.559,67.945C55.887,67.945 57.047,66.844 60.102,64.707C61.75,63.547 63.949,62.445 66.578,61.406L71.039,59.816C71.77,59.637 72.078,59.816 71.953,60.246ZM168.98,157.941C169.59,158.738 169.652,159.164 169.223,159.105C167.941,159.043 166.535,158.188 164.945,156.66C163.723,155.438 162.934,154.461 162.625,153.789C161.953,152.016 162.016,150.855 162.746,150.305C163.297,149.938 163.906,150.305 164.641,151.465L168.98,157.941ZM153.949,130.633C154.926,131.305 155.965,132.098 157.004,133.074C158.105,134.113 159.266,135.398 160.426,136.926C163.785,141.078 164.824,144.563 163.664,147.434L162.992,148.043C162.441,147.984 161.832,146.945 161.219,144.867C160.672,141.508 159.938,138.941 158.961,137.168C158.289,136.008 157.309,134.602 155.906,133.074C155.598,132.77 155.293,132.402 154.988,132.035C153.828,130.754 153.523,130.328 153.949,130.633ZM143.316,122.996C143.992,123.055 145.578,123.973 148.203,125.746C150.77,127.516 152.422,128.797 153.152,129.715C153.949,130.633 152.18,129.531 147.902,126.414C144.297,124.094 142.77,122.934 143.316,122.996ZM104.824,108.453C109.348,108.758 115.148,110.164 122.301,112.668C129.387,115.176 135.559,117.984 140.813,121.102C142.828,122.383 143.438,122.996 142.645,122.871C141.914,122.75 139.773,121.832 136.289,120.063C128.043,115.969 118.695,113.156 108.246,111.508C96.211,110.773 90.16,110.102 89.98,109.551C89.855,109.063 90.652,108.637 92.422,108.332C95.234,107.965 99.387,108.027 104.824,108.453ZM141.055,80.227C138.004,82.059 134.824,82.789 131.465,82.363C131.039,82.301 130.977,82.059 131.402,81.629C131.77,81.203 132.199,80.957 132.746,80.898L138.734,79.555L140.754,78.879L142.34,78.82C142.523,79.125 142.098,79.555 141.055,80.227ZM138.188,70.816L142.828,70.875C143.563,70.938 143.867,71.121 143.809,71.367L138.797,71.609C137.82,71.367 137.633,71.121 138.188,70.816ZM149.734,74.422C149.367,75.152 147.473,76.621 144.113,78.82C144.418,78.27 144.176,77.844 143.379,77.477C148.023,74.727 150.16,73.688 149.734,74.422ZM148.512,70.449C146.68,71.121 145.395,71.305 144.602,71.121L143.746,70.633C143.563,70.387 143.621,70.266 143.992,70.203C145.762,70.203 148.328,69.227 151.809,67.211L153.152,66.844L153.461,67.148C152.422,68.555 150.77,69.656 148.512,70.449ZM154.379,64.156C152.484,66.051 149.121,67.027 144.176,67.211C139.715,67.395 136.965,67.027 135.805,66.109C135.191,65.684 136.414,64.766 139.41,63.363C142.465,61.957 145.273,61.039 147.902,60.613C150.953,60.184 153.094,60.43 154.254,61.469C155.293,62.324 155.293,63.238 154.379,64.156ZM144.602,55.539L150.344,55.297C153.34,55.602 155.293,56.578 156.211,58.105C156.516,58.777 156.332,58.961 155.598,58.719C154.805,58.535 154.07,58.047 153.34,57.313C152.91,56.883 151.688,56.578 149.551,56.395L145.762,56.273L144.539,56.09C144.234,55.906 144.234,55.723 144.602,55.539ZM135.008,64.645C137.086,62.688 139.836,61.285 143.258,60.488C145.215,60 145.762,60.184 144.906,61.102C140.934,62.445 138.125,63.605 136.598,64.645C135.438,65.438 134.766,65.746 134.52,65.621C134.273,65.5 134.461,65.195 135.008,64.645ZM85.336,54.074C91.262,53.953 97.984,55.355 105.559,58.289C109.777,59.941 115.336,62.383 122.301,65.746C129.387,68.859 134.461,70.57 137.574,70.875C138.246,71.426 137.941,71.672 136.656,71.672C130.914,71.367 125.418,70.145 120.102,68.004L105.012,60.98C98.164,57.984 91.508,55.906 85.031,54.688C84.539,54.441 84.664,54.258 85.336,54.074ZM90.59,63.727C86.984,61.102 85.395,59.695 85.887,59.512L88.207,59.207C90.102,59.207 91.75,59.637 93.277,60.488C101.711,65.316 107.211,68.188 109.777,69.168C114.602,71.059 119.855,73.383 125.539,76.254C126.82,76.863 127.434,78.391 127.492,80.898L128.656,83.523C128.84,84.316 128.348,84.746 127.25,84.684C126.027,84.625 123.34,83.77 119.121,82.121C115.027,80.469 112.16,79.063 110.566,78.023L90.59,63.727ZM106.84,88.594L112.035,82.121C112.219,81.02 111.668,79.797 110.324,78.453C112.098,79.734 113.746,80.531 115.211,80.957C115.945,81.203 115.578,81.813 114.113,82.789L108.492,87.926C106.535,89.816 105.07,91.285 104.152,92.383C103.605,92.934 103.234,93.422 103.055,93.727C101.59,95.988 100.977,96.66 101.281,95.805C101.465,95.379 102.258,94.277 103.789,92.383C104.578,91.344 105.617,90.063 106.84,88.594ZM92.727,104.176C93.766,103.992 95.234,103.199 97.125,101.672L93.645,105.152L85.09,106.316L92.727,104.176ZM35.109,134.664C36.09,134.113 37.066,133.625 37.984,133.074C46.902,128.25 55.398,125.07 63.523,123.543C64.563,123.605 63.891,124.031 61.566,124.828L51.059,128.309C47.027,129.84 43.359,131.426 40,133.074C33.094,136.559 27.656,140.406 23.809,144.621C23.867,142.363 27.598,139.004 35.109,134.664ZM20.266,163.625L15.621,164.297L10.918,163.688C10.121,163.199 10,162.219 10.426,160.691C11.16,158.246 12.137,156.109 13.359,154.215C14.52,152.504 15.07,151.957 15.07,152.566C15.07,153.238 14.703,154.766 13.973,157.148C13.359,159.105 13.238,160.324 13.605,160.816C14.766,162.219 16.844,162.891 19.898,162.891C21.059,162.891 21.18,163.137 20.266,163.625ZM20.508,159.961C18.98,159.594 18.371,158.922 18.738,157.941C18.797,157.762 19.164,157.82 19.777,158.246C20.629,158.859 21.484,159.164 22.402,159.105C23.074,159.043 23.012,159.348 22.281,159.961L20.508,159.961ZM44.215,154.215C35.723,159.285 28.453,162.402 22.402,163.441C29.855,161.18 37.066,157.82 44.031,153.238C50.691,148.902 57.902,143.645 65.539,137.598C58.941,144.074 51.852,149.633 44.215,154.215ZM61.508,133.074C53.625,141.02 44.703,147.863 34.746,153.668C27.414,157.883 22.465,159.164 19.957,157.516L19.043,156.477C18.246,150.672 22.648,144.684 32.18,138.512C35.172,136.559 38.41,134.727 41.895,133.074C46.23,130.938 50.938,129.043 56.008,127.395C59.613,126.293 63.523,125.316 67.738,124.461L69.145,124.645C66.699,127.578 64.133,130.387 61.508,133.074ZM167.086,162.586C160.914,158.859 156.883,155.254 155.109,151.895C154.805,151.281 154.926,150.063 155.535,148.168C156.27,146.027 156.453,144.012 156.09,142.238C155.535,139.492 153.523,136.801 150.102,134.297C149.551,133.871 148.941,133.504 148.387,133.074C143.074,129.652 135.926,126.965 126.941,125.012C116.984,122.871 107.758,121.59 99.145,121.285L75.742,122.324L68.961,123.359C67.434,123.543 66.824,123.238 67.129,122.566C67.313,122.078 69.203,121.16 72.75,119.879C76.477,118.473 79.652,117.555 82.219,117.191C90.344,116.027 98.777,116.027 107.395,117.313C112.035,117.984 117.531,119.207 123.949,120.977C130.855,122.813 136.047,124.582 139.531,126.23C144.602,128.613 148.387,130.875 151.02,133.074C151.934,133.871 152.668,134.602 153.277,135.336C156.395,139.063 157.734,142.852 157.309,146.699C157.004,149.574 157.309,151.59 158.227,152.75C159.816,154.766 163.055,157.762 168.004,161.609C172.586,164.848 174.969,166.68 175.211,167.047C175.641,167.719 172.949,166.191 167.086,162.586ZM179.551,170.102C178.754,170.039 177.898,169.492 176.984,168.574C176.066,167.656 175.887,167.105 176.313,166.863L178.023,167.535C180.406,169.43 180.957,170.285 179.551,170.102" style="fill:rgb(50,48,49);"/>
        <path d="M56.559,67.945C56.926,67.945 58.328,67.211 60.711,65.684C63.828,63.668 67.617,61.895 71.953,60.246C72.078,59.816 71.77,59.637 71.039,59.816L66.578,61.406C63.949,62.445 61.75,63.547 60.102,64.707C57.047,66.844 55.887,67.945 56.559,67.945" style="fill:rgb(172,174,177);"/>
        <path d="M49.715,71.305C50.691,69.656 50.691,68.98 49.652,69.289C48.188,69.836 46.535,72.098 44.645,76.133C42.809,80.469 41.586,83.098 41.039,84.012C40.672,84.625 40.793,84.992 41.406,85.051C42.32,85.297 43.543,84.625 45.07,83.035C45.805,82.242 46.352,80.836 46.781,78.82C47.207,76.316 48.188,73.809 49.715,71.305" style="fill:rgb(254,254,254);"/>
        <path d="M111.695,78.703L115.023,80.367C113.691,79.758 112.582,79.199 111.695,78.703" style="fill:rgb(155,157,159);"/>
        <path d="M110.746,78.141L116.633,81.082C116.066,80.84 115.527,80.598 115.023,80.367L111.695,78.703C111.344,78.508 111.027,78.316 110.746,78.141" style="fill:rgb(152,155,158);"/>
        <path d="M110.277,77.816L117.816,81.586C117.406,81.414 117.016,81.246 116.633,81.082L110.746,78.141L110.566,78.023L110.277,77.816" style="fill:rgb(152,155,158);"/>
        <path d="M109.859,77.52L118.82,81.996C118.477,81.859 118.141,81.719 117.816,81.586L110.277,77.816L109.859,77.52" style="fill:rgb(152,155,158);"/>
        <path d="M109.445,77.223L119.676,82.336L119.121,82.121L118.82,81.996L109.859,77.52L109.445,77.223" style="fill:rgb(150,152,156);"/>
        <path d="M109.027,76.922L120.449,82.633L119.676,82.336L109.445,77.223L109.027,76.922" style="fill:rgb(150,152,156);"/>
        <path d="M108.613,76.625L121.18,82.906C120.941,82.82 120.699,82.727 120.449,82.633L109.027,76.922L108.613,76.625" style="fill:rgb(148,150,154);"/>
        <path d="M108.199,76.328L121.855,83.156L121.18,82.906L108.613,76.625L108.199,76.328" style="fill:rgb(148,150,154);"/>
        <path d="M107.785,76.031L122.496,83.387L121.855,83.156L108.199,76.328L107.785,76.031" style="fill:rgb(148,150,154);"/>
        <path d="M107.367,75.734L123.094,83.598C122.898,83.531 122.699,83.461 122.496,83.387L107.785,76.031L107.367,75.734" style="fill:rgb(146,148,151);"/>
        <path d="M106.953,75.438L123.648,83.785C123.469,83.727 123.285,83.66 123.094,83.598L107.367,75.734L106.953,75.438" style="fill:rgb(146,148,151);"/>
        <path d="M106.539,75.141L124.168,83.953C124,83.902 123.828,83.844 123.648,83.785L106.953,75.438L106.539,75.141" style="fill:rgb(145,146,149);"/>
        <path d="M106.121,74.844L124.648,84.105C124.492,84.059 124.332,84.008 124.168,83.953L106.539,75.141L106.121,74.844" style="fill:rgb(145,146,149);"/>
        <path d="M105.707,74.547L125.09,84.238C124.949,84.195 124.801,84.152 124.648,84.105L106.121,74.844L105.707,74.547" style="fill:rgb(145,146,149);"/>
        <path d="M105.293,74.25L125.496,84.352C125.367,84.316 125.23,84.277 125.09,84.238L105.707,74.547L105.293,74.25" style="fill:rgb(143,145,147);"/>
        <path d="M104.879,73.953L125.867,84.445C125.746,84.418 125.625,84.383 125.496,84.352L105.293,74.25L104.879,73.953" style="fill:rgb(143,145,147);"/>
        <path d="M104.465,73.656L126.203,84.523C126.098,84.5 125.984,84.477 125.867,84.445L104.879,73.953L104.465,73.656" style="fill:rgb(141,144,146);"/>
        <path d="M104.047,73.359L126.508,84.59C126.414,84.57 126.313,84.551 126.203,84.523L104.465,73.656L104.047,73.359" style="fill:rgb(141,144,146);"/>
        <path d="M103.633,73.063L126.785,84.637C126.699,84.621 126.605,84.605 126.508,84.59L104.047,73.359L103.633,73.063" style="fill:rgb(141,144,146);"/>
        <path d="M103.219,72.766L127.027,84.668C126.949,84.66 126.867,84.648 126.785,84.637L103.633,73.063L103.219,72.766" style="fill:rgb(139,142,144);"/>
        <path d="M102.801,72.469L127.238,84.684C127.172,84.68 127.102,84.676 127.027,84.668L103.219,72.766L102.801,72.469" style="fill:rgb(139,142,144);"/>
        <path d="M102.387,72.168L127.434,84.691C127.371,84.691 127.313,84.688 127.25,84.684L127.238,84.684L102.801,72.469L102.387,72.168" style="fill:rgb(137,139,142);"/>
        <path d="M101.973,71.871L127.602,84.688C127.547,84.688 127.492,84.691 127.434,84.691L102.387,72.168L101.973,71.871" style="fill:rgb(137,139,142);"/>
        <path d="M101.555,71.574L127.758,84.676C127.707,84.68 127.656,84.684 127.602,84.688L101.973,71.871L101.555,71.574" style="fill:rgb(137,139,142);"/>
        <path d="M101.141,71.277L127.895,84.652C127.852,84.66 127.805,84.668 127.758,84.676L101.555,71.574L101.141,71.277" style="fill:rgb(135,137,139);"/>
        <path d="M100.727,70.98L128.02,84.629C127.98,84.637 127.938,84.645 127.895,84.652L101.141,71.277L100.727,70.98" style="fill:rgb(135,137,139);"/>
        <path d="M100.309,70.684L128.129,84.594C128.094,84.605 128.059,84.617 128.02,84.629L100.727,70.98L100.309,70.684" style="fill:rgb(135,137,139);"/>
        <path d="M99.895,70.387L128.23,84.551C128.199,84.566 128.164,84.578 128.129,84.594L100.309,70.684L99.895,70.387" style="fill:rgb(133,135,137);"/>
        <path d="M99.48,70.09L128.316,84.508C128.289,84.523 128.262,84.539 128.23,84.551L99.895,70.387L99.48,70.09" style="fill:rgb(133,135,137);"/>
        <path d="M99.063,69.793L128.395,84.457C128.371,84.473 128.344,84.492 128.316,84.508L99.48,70.09L99.063,69.793" style="fill:rgb(132,133,135);"/>
        <path d="M98.648,69.496L128.461,84.398C128.441,84.422 128.418,84.438 128.395,84.457L99.063,69.793L98.648,69.496" style="fill:rgb(132,133,135);"/>
        <path d="M98.234,69.195L128.52,84.34C128.504,84.359 128.48,84.379 128.461,84.398L98.648,69.496L98.234,69.195" style="fill:rgb(132,133,135);"/>
        <path d="M97.82,68.902L128.57,84.273C128.555,84.297 128.539,84.316 128.52,84.34L98.234,69.195L97.82,68.902" style="fill:rgb(130,132,134);"/>
        <path d="M97.402,68.605L128.609,84.203C128.598,84.23 128.586,84.254 128.57,84.273L97.82,68.902L97.402,68.605" style="fill:rgb(130,132,134);"/>
        <path d="M96.988,68.305L128.641,84.133C128.633,84.156 128.621,84.18 128.609,84.203L97.402,68.605L96.988,68.305" style="fill:rgb(128,130,133);"/>
        <path d="M96.574,68.012L128.664,84.055C128.66,84.078 128.652,84.105 128.641,84.133L96.988,68.305L96.574,68.012" style="fill:rgb(128,130,133);"/>
        <path d="M96.156,67.711L128.68,83.973C128.676,84 128.672,84.027 128.664,84.055L96.574,68.012L96.156,67.711" style="fill:rgb(128,130,133);"/>
        <path d="M95.742,67.414L128.691,83.887C128.688,83.914 128.688,83.945 128.68,83.973L96.156,67.711L95.742,67.414" style="fill:rgb(125,128,131);"/>
        <path d="M95.328,67.117L128.691,83.797L128.691,83.887L95.742,67.414L95.328,67.117" style="fill:rgb(125,128,131);"/>
        <path d="M94.91,66.82L128.684,83.707C128.688,83.738 128.691,83.77 128.691,83.797L95.328,67.117L94.91,66.82" style="fill:rgb(123,125,129);"/>
        <path d="M94.496,66.523L128.672,83.609C128.676,83.641 128.68,83.676 128.684,83.707L94.91,66.82L94.496,66.523" style="fill:rgb(123,125,129);"/>
        <path d="M94.082,66.227L128.648,83.508L128.656,83.523L128.672,83.609L94.496,66.523L94.082,66.227" style="fill:rgb(123,125,129);"/>
        <path d="M93.668,65.93L128.598,83.395L128.648,83.508L94.082,66.227L93.668,65.93" style="fill:rgb(122,123,126);"/>
        <path d="M93.25,65.633L128.547,83.277L128.598,83.395L93.668,65.93L93.25,65.633" style="fill:rgb(122,123,126);"/>
        <path d="M92.836,65.336L128.496,83.164L128.547,83.277L93.25,65.633L92.836,65.336" style="fill:rgb(121,121,124);"/>
        <path d="M92.422,65.039L128.445,83.047L128.496,83.164L92.836,65.336L92.422,65.039" style="fill:rgb(121,121,124);"/>
        <path d="M92,64.738L128.395,82.934L128.445,83.047L92.422,65.039L92,64.738" style="fill:rgb(121,121,124);"/>
        <path d="M91.586,64.441L128.344,82.816L128.395,82.934L92,64.738L91.586,64.441" style="fill:rgb(119,120,122);"/>
        <path d="M91.172,64.145L128.293,82.703L128.344,82.816L91.586,64.441L91.172,64.145" style="fill:rgb(119,120,122);"/>
        <path d="M90.754,63.848L128.242,82.59L128.293,82.703L91.172,64.145L90.754,63.848" style="fill:rgb(119,120,122);"/>
        <path d="M90.352,63.555L128.191,82.473L128.242,82.59L90.754,63.848L90.59,63.727L90.352,63.555" style="fill:rgb(117,118,121);"/>
        <path d="M89.969,63.273L128.141,82.359L128.191,82.473L90.352,63.555L89.969,63.273" style="fill:rgb(117,118,121);"/>
        <path d="M89.594,62.996L128.09,82.242L128.141,82.359L89.969,63.273L89.594,62.996" style="fill:rgb(115,116,119);"/>
        <path d="M89.234,62.727L128.039,82.129L128.09,82.242L89.594,62.996L89.234,62.727" style="fill:rgb(115,116,119);"/>
        <path d="M88.879,62.461L127.988,82.016L128.039,82.129L89.234,62.727L88.879,62.461" style="fill:rgb(115,116,119);"/>
        <path d="M88.539,62.203L127.938,81.898L127.988,82.016L88.879,62.461L88.539,62.203" style="fill:rgb(112,113,117);"/>
        <path d="M88.215,61.949L127.887,81.785L127.938,81.898L88.539,62.203L88.215,61.949" style="fill:rgb(112,113,117);"/>
        <path d="M87.902,61.703L127.836,81.668L127.887,81.785L88.215,61.949L87.902,61.703" style="fill:rgb(110,111,115);"/>
        <path d="M87.602,61.465L127.785,81.555L127.836,81.668L87.902,61.703L87.602,61.465" style="fill:rgb(110,111,115);"/>
        <path d="M87.316,61.23L127.734,81.438L127.785,81.555L87.602,61.465L87.316,61.23" style="fill:rgb(110,111,115);"/>
        <path d="M87.055,61.012L127.684,81.324L127.734,81.438L87.316,61.23L87.055,61.012" style="fill:rgb(108,109,112);"/>
        <path d="M86.805,60.797L127.633,81.207L127.684,81.324L87.055,61.012C86.969,60.938 86.883,60.867 86.805,60.797" style="fill:rgb(108,109,112);"/>
        <path d="M86.578,60.594L127.582,81.094L127.633,81.207L86.805,60.797C86.727,60.727 86.652,60.66 86.578,60.594" style="fill:rgb(107,108,110);"/>
        <path d="M86.375,60.402L127.531,80.977L127.582,81.094L86.578,60.594C86.508,60.527 86.438,60.465 86.375,60.402" style="fill:rgb(107,108,110);"/>
        <path d="M86.199,60.227L127.492,80.871L127.492,80.898L127.531,80.977L86.375,60.402C86.309,60.34 86.254,60.281 86.199,60.227" style="fill:rgb(107,108,110);"/>
        <path d="M86.047,60.059L127.492,80.777L127.492,80.871L86.199,60.227C86.141,60.164 86.094,60.109 86.047,60.059" style="fill:rgb(105,106,108);"/>
        <path d="M85.93,59.91L127.488,80.688L127.492,80.777L86.047,60.059C86.004,60.008 85.961,59.957 85.93,59.91" style="fill:rgb(105,106,108);"/>
        <path d="M85.844,59.777L127.484,80.598L127.488,80.688L85.93,59.91C85.895,59.863 85.863,59.82 85.844,59.777" style="fill:rgb(103,104,107);"/>
        <path d="M85.801,59.668L127.48,80.504L127.484,80.598L85.844,59.777C85.824,59.738 85.809,59.699 85.801,59.668" style="fill:rgb(103,104,107);"/>
        <path d="M85.805,59.582L127.473,80.414L127.48,80.504L85.801,59.668C85.793,59.637 85.797,59.605 85.805,59.582" style="fill:rgb(103,104,107);"/>
        <path d="M85.863,59.52L127.469,80.32L127.473,80.414L85.805,59.582C85.816,59.555 85.836,59.535 85.863,59.52" style="fill:rgb(100,101,104);"/>
        <path d="M85.996,59.496L127.465,80.227L127.469,80.32L85.863,59.52L85.887,59.512L85.996,59.496" style="fill:rgb(100,101,104);"/>
        <path d="M86.137,59.48L127.453,80.137L127.465,80.227L85.996,59.496L86.137,59.48" style="fill:rgb(98,99,101);"/>
        <path d="M86.281,59.461L127.449,80.039L127.453,80.137L86.137,59.48L86.281,59.461" style="fill:rgb(98,99,101);"/>
        <path d="M86.422,59.441L127.438,79.949L127.449,80.039L86.281,59.461L86.422,59.441" style="fill:rgb(98,99,101);"/>
        <path d="M86.563,59.422L127.43,79.855L127.438,79.949L86.422,59.441L86.563,59.422" style="fill:rgb(96,97,99);"/>
        <path d="M86.707,59.402L127.422,79.758L127.43,79.855L86.563,59.422L86.707,59.402" style="fill:rgb(96,97,99);"/>
        <path d="M86.848,59.387L127.41,79.664L127.422,79.758L86.707,59.402L86.848,59.387" style="fill:rgb(96,97,99);"/>
        <path d="M86.988,59.367L127.398,79.57L127.41,79.664L86.848,59.387L86.988,59.367" style="fill:rgb(95,95,97);"/>
        <path d="M87.133,59.348L127.383,79.473L127.398,79.57L86.988,59.367L87.133,59.348" style="fill:rgb(95,95,97);"/>
        <path d="M87.273,59.328L127.371,79.375L127.383,79.473L87.133,59.348L87.273,59.328" style="fill:rgb(92,93,95);"/>
        <path d="M87.414,59.313L127.355,79.277L127.371,79.375L87.273,59.328L87.414,59.313" style="fill:rgb(92,93,95);"/>
        <path d="M87.555,59.293L127.34,79.184L127.355,79.277L87.414,59.313L87.555,59.293" style="fill:rgb(92,93,95);"/>
        <path d="M87.699,59.273L127.32,79.082L127.34,79.184L87.555,59.293L87.699,59.273" style="fill:rgb(90,91,93);"/>
        <path d="M87.84,59.254L127.301,78.984L127.32,79.082L87.699,59.273L87.84,59.254" style="fill:rgb(90,91,93);"/>
        <path d="M87.98,59.234L127.281,78.883L127.301,78.984L87.84,59.254L87.98,59.234" style="fill:rgb(87,88,91);"/>
        <path d="M88.121,59.219L127.258,78.781L127.281,78.883L87.98,59.234L88.121,59.219" style="fill:rgb(87,88,91);"/>
        <path d="M88.281,59.207L127.234,78.684L127.258,78.781L88.121,59.219L88.207,59.207L88.281,59.207" style="fill:rgb(87,88,91);"/>
        <path d="M88.465,59.211L127.211,78.578L127.234,78.684L88.281,59.207L88.465,59.211" style="fill:rgb(85,85,88);"/>
        <path d="M88.656,59.215L127.184,78.477L127.211,78.578L88.465,59.211L88.656,59.215" style="fill:rgb(85,85,88);"/>
        <path d="M88.852,59.227L127.152,78.371L127.184,78.477L88.656,59.215L88.852,59.227" style="fill:rgb(83,83,85);"/>
        <path d="M89.059,59.238L127.121,78.266L127.152,78.371L88.852,59.227L89.059,59.238" style="fill:rgb(83,83,85);"/>
        <path d="M89.273,59.254L127.086,78.16L127.121,78.266L89.059,59.238L89.273,59.254" style="fill:rgb(83,83,85);"/>
        <path d="M89.496,59.277L127.047,78.051L127.086,78.16L89.273,59.254L89.496,59.277" style="fill:rgb(81,82,83);"/>
        <path d="M89.734,59.309L105.504,67.188C105.859,67.371 106.199,67.539 106.523,67.699L127.004,77.938L127.047,78.051L89.496,59.277L89.734,59.309" style="fill:rgb(81,82,83);"/>
        <path d="M89.988,59.344L101.848,65.273C103.211,66.008 104.43,66.645 105.504,67.188L89.734,59.309C89.82,59.32 89.906,59.332 89.988,59.344ZM109.051,68.871L126.957,77.828L127.004,77.938L106.523,67.699C107.516,68.188 108.355,68.578 109.051,68.871" style="fill:rgb(79,79,81);"/>
        <path d="M90.266,59.391L99.84,64.18C100.539,64.566 101.211,64.93 101.848,65.273L89.988,59.344C90.082,59.359 90.172,59.375 90.266,59.391ZM109.965,69.242L126.906,77.711L126.957,77.828L109.051,68.871C109.313,68.984 109.555,69.082 109.777,69.168L109.965,69.242" style="fill:rgb(79,79,81);"/>
        <path d="M90.566,59.453L98.156,63.246C98.734,63.57 99.297,63.883 99.84,64.18L90.266,59.391C90.367,59.41 90.465,59.434 90.566,59.453ZM110.844,69.59L126.848,77.594L126.906,77.711L109.965,69.242C110.254,69.355 110.547,69.473 110.844,69.59" style="fill:rgb(79,79,81);"/>
        <path d="M90.91,59.535L96.656,62.41C97.172,62.699 97.668,62.977 98.156,63.246L90.566,59.453C90.68,59.48 90.797,59.508 90.91,59.535ZM111.77,69.965L126.785,77.473L126.848,77.594L110.844,69.59L111.77,69.965" style="fill:rgb(77,77,79);"/>
        <path d="M91.324,59.652L95.273,61.629C95.746,61.895 96.207,62.156 96.656,62.41L90.91,59.535C91.047,59.57 91.188,59.609 91.324,59.652ZM112.777,70.379L126.715,77.348L126.785,77.473L111.77,69.965L112.777,70.379" style="fill:rgb(77,77,79);"/>
        <path d="M91.883,59.844L93.977,60.891L95.273,61.629L91.324,59.652C91.512,59.711 91.699,59.773 91.883,59.844ZM113.875,70.84L126.629,77.215C126.656,77.258 126.688,77.301 126.715,77.348L112.777,70.379C113.141,70.531 113.508,70.684 113.875,70.84" style="fill:rgb(77,77,79);"/>
        <path d="M115.105,71.363L126.531,77.078C126.566,77.121 126.598,77.168 126.629,77.215L113.875,70.84C114.281,71.012 114.691,71.188 115.105,71.363ZM93.977,60.891L91.883,59.844C92.359,60.02 92.824,60.234 93.277,60.488L93.977,60.891" style="fill:rgb(73,73,75);"/>
        <path d="M116.516,71.98L126.414,76.926C126.453,76.977 126.492,77.023 126.531,77.078L115.105,71.363C115.57,71.566 116.043,71.77 116.516,71.98" style="fill:rgb(73,73,75);"/>
        <path d="M118.234,72.75L126.258,76.762C126.313,76.813 126.363,76.867 126.414,76.926L116.516,71.98C117.086,72.23 117.656,72.488 118.234,72.75" style="fill:rgb(71,71,73);"/>
        <path d="M120.633,73.859L126.023,76.555C126.105,76.617 126.184,76.688 126.258,76.762L118.234,72.75C119.027,73.109 119.824,73.48 120.633,73.859" style="fill:rgb(71,71,73);"/>
        <path d="M126.023,76.555L120.633,73.859C122.23,74.613 123.867,75.41 125.539,76.254C125.715,76.336 125.875,76.438 126.023,76.555" style="fill:rgb(71,71,73);"/>
        <path d="M85.336,54.074C84.664,54.258 84.539,54.441 85.031,54.688C91.508,55.906 98.164,57.984 105.012,60.98L120.102,68.004C125.414,70.145 130.914,71.367 136.656,71.672C137.941,71.672 138.246,71.426 137.574,70.875C134.461,70.57 129.387,68.859 122.301,65.746C115.336,62.383 109.777,59.941 105.559,58.289C97.984,55.355 91.262,53.953 85.336,54.074" style="fill:rgb(254,254,254);"/>
        <path d="M38.656,88.105C37.984,88.352 37.801,88.719 38.043,89.145C38.227,89.512 39.695,89.023 42.32,87.68C43.301,87.313 43.727,86.887 43.543,86.457C43.422,86.027 42.871,86.09 41.957,86.762L38.656,88.105" style="fill:rgb(133,135,137);"/>
        <path d="M39.695,89.391L40.855,89.27C43.113,88.473 44.703,87.68 45.742,86.887L48.918,84.93C50.508,83.828 50.938,82.973 50.266,82.426C50.141,82.301 49.285,82.789 47.699,83.828C46.109,84.867 45.191,85.664 44.887,86.152C44.52,86.824 43.48,87.617 41.832,88.41L39.695,89.391" style="fill:rgb(34,31,31);"/>
        <path d="M36.578,89.938C36.641,89.145 36.641,88.719 36.457,88.594C36.332,88.473 35.293,88.84 33.402,89.695L29.98,91.469C29.43,91.895 29.855,92.078 31.141,91.895L35.539,90.918L36.578,90.367C36.762,90.121 36.762,90 36.578,89.938" style="fill:rgb(34,31,31);"/>
        <path d="M61.566,124.828C63.891,124.031 64.563,123.605 63.523,123.543C54.539,125.254 45.07,128.98 35.109,134.664C27.598,139.004 23.867,142.363 23.809,144.621C29.551,138.332 38.656,132.895 51.059,128.309L61.566,124.828" style="fill:rgb(159,160,163);"/>
        <path d="M173.957,166.668L175.254,167.16C175.242,167.285 174.813,167.121 173.957,166.668" style="fill:rgb(135,137,139);"/>
        <path d="M172.734,165.984L175.043,166.863C175.129,166.945 175.184,167.004 175.211,167.047C175.242,167.098 175.258,167.133 175.254,167.16L173.957,166.668C173.617,166.484 173.211,166.258 172.734,165.984" style="fill:rgb(135,137,139);"/>
        <path d="M171.664,165.359L174.605,166.48C174.793,166.637 174.938,166.766 175.043,166.863L172.734,165.984C172.41,165.797 172.055,165.59 171.664,165.359" style="fill:rgb(133,135,137);"/>
        <path d="M170.66,164.766L174.098,166.074C174.289,166.227 174.461,166.359 174.605,166.48L171.664,165.359C171.352,165.176 171.016,164.977 170.66,164.766" style="fill:rgb(133,135,137);"/>
        <path d="M169.691,164.18L173.555,165.652C173.754,165.805 173.934,165.945 174.098,166.074L170.66,164.766L169.691,164.18" style="fill:rgb(132,133,135);"/>
        <path d="M168.746,163.605L172.988,165.219C173.191,165.371 173.379,165.516 173.555,165.652L169.691,164.18L168.746,163.605" style="fill:rgb(132,133,135);"/>
        <path d="M167.809,163.031L172.395,164.777C172.605,164.934 172.801,165.082 172.988,165.219L168.746,163.605L167.809,163.031" style="fill:rgb(132,133,135);"/>
        <path d="M166.883,162.461L171.793,164.336L172.395,164.777L167.809,163.031L167.086,162.586L166.883,162.461" style="fill:rgb(130,132,134);"/>
        <path d="M165.969,161.898L171.176,163.883L171.793,164.336L166.883,162.461C166.57,162.273 166.27,162.086 165.969,161.898" style="fill:rgb(130,132,134);"/>
        <path d="M165.133,161.367L170.555,163.43L171.176,163.883L165.969,161.898C165.688,161.723 165.406,161.543 165.133,161.367" style="fill:rgb(128,130,133);"/>
        <path d="M164.355,160.855L169.914,162.973L170.555,163.43L165.133,161.367C164.871,161.195 164.609,161.023 164.355,160.855" style="fill:rgb(128,130,133);"/>
        <path d="M163.641,160.367L169.277,162.516L169.914,162.973L164.355,160.855C164.113,160.691 163.875,160.531 163.641,160.367" style="fill:rgb(128,130,133);"/>
        <path d="M162.973,159.898L168.625,162.051L169.277,162.516L163.641,160.367C163.414,160.211 163.191,160.055 162.973,159.898" style="fill:rgb(125,128,131);"/>
        <path d="M67.219,123.203L67.668,123.375C67.469,123.34 67.32,123.281 67.219,123.203ZM162.348,159.445L167.977,161.59L168.004,161.609L168.625,162.051L162.973,159.898C162.762,159.746 162.551,159.594 162.348,159.445" style="fill:rgb(125,128,131);"/>
        <path d="M67.055,122.926L68.328,123.41C68.07,123.418 67.848,123.406 67.668,123.375L67.219,123.203C67.121,123.129 67.066,123.035 67.055,122.926ZM161.758,159.004L167.438,161.168L167.977,161.59L162.348,159.445C162.148,159.297 161.953,159.152 161.758,159.004" style="fill:rgb(123,125,129);"/>
        <path d="M67.07,122.719L68.805,123.379C68.633,123.395 68.477,123.406 68.328,123.41L67.055,122.926C67.047,122.863 67.051,122.793 67.07,122.719ZM161.211,158.578L166.906,160.75L167.438,161.168L161.758,159.004C161.574,158.863 161.391,158.719 161.211,158.578" style="fill:rgb(123,125,129);"/>
        <path d="M67.145,122.531L69.223,123.32L68.961,123.359L68.805,123.379L67.07,122.719C67.086,122.672 67.102,122.617 67.129,122.566L67.145,122.531ZM160.699,158.168L166.391,160.336L166.906,160.75L161.211,158.578C161.039,158.441 160.867,158.305 160.699,158.168" style="fill:rgb(123,125,129);"/>
        <path d="M67.273,122.363L69.625,123.258L69.223,123.32L67.145,122.531C67.172,122.48 67.215,122.422 67.273,122.363ZM160.219,157.77L165.879,159.926L166.391,160.336L160.699,158.168C160.535,158.035 160.375,157.902 160.219,157.77" style="fill:rgb(122,123,126);"/>
        <path d="M67.449,122.215L70.027,123.199L69.625,123.258L67.273,122.363C67.324,122.316 67.383,122.27 67.449,122.215ZM159.766,157.383L165.387,159.523L165.879,159.926L160.219,157.77C160.063,157.641 159.914,157.512 159.766,157.383" style="fill:rgb(122,123,126);"/>
        <path d="M67.652,122.078L70.43,123.137L70.027,123.199L67.449,122.215C67.512,122.172 67.578,122.125 67.652,122.078ZM159.34,157.004L164.895,159.121L165.387,159.523L159.766,157.383C159.621,157.258 159.477,157.133 159.34,157.004" style="fill:rgb(121,121,124);"/>
        <path d="M67.867,121.945L70.836,123.074L70.43,123.137L67.652,122.078C67.719,122.035 67.789,121.988 67.867,121.945ZM158.934,156.637L164.418,158.727L164.895,159.121L159.34,157.004C159.199,156.883 159.066,156.758 158.934,156.637" style="fill:rgb(121,121,124);"/>
        <path d="M68.098,121.816L71.238,123.012L70.836,123.074L67.867,121.945C67.941,121.902 68.016,121.859 68.098,121.816ZM158.555,156.277L163.949,158.332C164.105,158.461 164.258,158.594 164.418,158.727L158.934,156.637C158.805,156.516 158.68,156.395 158.555,156.277" style="fill:rgb(121,121,124);"/>
        <path d="M68.336,121.691L71.641,122.949L71.238,123.012L68.098,121.816C68.172,121.773 68.25,121.734 68.336,121.691ZM158.199,155.926L163.496,157.941L163.949,158.332L158.555,156.277C158.434,156.156 158.316,156.043 158.199,155.926" style="fill:rgb(119,120,122);"/>
        <path d="M68.578,121.57L72.043,122.891L71.641,122.949L68.336,121.691L68.578,121.57ZM157.863,155.582L163.047,157.555L163.496,157.941L158.199,155.926C158.086,155.809 157.977,155.695 157.863,155.582" style="fill:rgb(119,120,122);"/>
        <path d="M68.828,121.449L72.445,122.828L72.043,122.891L68.578,121.57L68.828,121.449ZM157.551,155.246L162.613,157.176L163.047,157.555L157.863,155.582C157.758,155.469 157.652,155.359 157.551,155.246" style="fill:rgb(119,120,122);"/>
        <path d="M69.086,121.332L72.852,122.766L72.445,122.828L68.828,121.449L69.086,121.332ZM157.254,154.918L162.191,156.801L162.613,157.176L157.551,155.246C157.449,155.137 157.352,155.027 157.254,154.918" style="fill:rgb(117,118,121);"/>
        <path d="M69.344,121.215L73.254,122.703L72.852,122.766L69.086,121.332L69.344,121.215ZM156.977,154.598L161.785,156.43C161.918,156.551 162.055,156.676 162.191,156.801L157.254,154.918C157.16,154.813 157.066,154.703 156.977,154.598" style="fill:rgb(117,118,121);"/>
        <path d="M69.609,121.098L73.656,122.641L73.254,122.703L69.344,121.215L69.609,121.098ZM156.715,154.281L161.387,156.063C161.516,156.184 161.648,156.305 161.785,156.43L156.977,154.598C156.887,154.492 156.801,154.387 156.715,154.281" style="fill:rgb(115,116,119);"/>
        <path d="M69.879,120.984L74.059,122.582L73.656,122.641L69.609,121.098L69.879,120.984ZM156.469,153.973L160.996,155.699L161.387,156.063L156.715,154.281C156.629,154.18 156.547,154.078 156.469,153.973" style="fill:rgb(115,116,119);"/>
        <path d="M70.148,120.875L74.465,122.52L74.059,122.582L69.879,120.984L70.148,120.875ZM156.238,153.672L160.625,155.344L160.996,155.699L156.469,153.973C156.391,153.871 156.313,153.77 156.238,153.672" style="fill:rgb(115,116,119);"/>
        <path d="M70.418,120.762L74.863,122.457L74.465,122.52L70.148,120.875L70.418,120.762ZM156.023,153.371L160.266,154.988C160.383,155.105 160.504,155.223 160.625,155.344L156.238,153.672C156.164,153.57 156.094,153.473 156.023,153.371" style="fill:rgb(112,113,117);"/>
        <path d="M70.695,120.652L75.27,122.395L74.863,122.457L70.418,120.762L70.695,120.652ZM155.82,153.082L159.922,154.641C160.031,154.758 160.148,154.871 160.266,154.988L156.023,153.371C155.953,153.273 155.887,153.176 155.82,153.082" style="fill:rgb(112,113,117);"/>
        <path d="M70.973,120.543L75.672,122.332L75.27,122.395L70.695,120.652L70.973,120.543ZM155.633,152.793L159.59,154.301C159.695,154.41 159.809,154.527 159.922,154.641L155.82,153.082C155.758,152.984 155.695,152.891 155.633,152.793" style="fill:rgb(110,111,115);"/>
        <path d="M71.254,120.434L76.164,122.305L75.742,122.324L75.672,122.332L70.973,120.543L71.254,120.434ZM155.461,152.512L159.273,153.965C159.375,154.074 159.48,154.188 159.59,154.301L155.633,152.793C155.574,152.699 155.516,152.605 155.461,152.512" style="fill:rgb(110,111,115);"/>
        <path d="M71.539,120.328L76.668,122.281L76.164,122.305L71.254,120.434L71.539,120.328ZM155.297,152.234L158.973,153.637C159.07,153.742 159.168,153.852 159.273,153.965L155.461,152.512C155.402,152.418 155.348,152.328 155.297,152.234" style="fill:rgb(110,111,115);"/>
        <path d="M71.82,120.219L77.176,122.258L76.668,122.281L71.539,120.328L71.82,120.219ZM155.145,151.961L158.688,153.313C158.781,153.418 158.875,153.523 158.973,153.637L155.297,152.234C155.242,152.145 155.195,152.055 155.145,151.961" style="fill:rgb(108,109,112);"/>
        <path d="M72.109,120.113L77.684,122.234L77.176,122.258L71.82,120.219L72.109,120.113ZM155.035,151.703L158.422,152.996C158.508,153.098 158.598,153.203 158.688,153.313L155.145,151.961L155.109,151.895C155.082,151.836 155.055,151.773 155.035,151.703" style="fill:rgb(108,109,112);"/>
        <path d="M72.395,120.008L78.184,122.215L77.684,122.234L72.109,120.113L72.395,120.008ZM154.98,151.469L158.176,152.688L158.227,152.75C158.289,152.828 158.355,152.91 158.422,152.996L155.035,151.703C155.012,151.633 154.992,151.551 154.98,151.469" style="fill:rgb(107,108,110);"/>
        <path d="M72.684,119.902L78.695,122.191L78.184,122.215L72.395,120.008L72.684,119.902ZM154.953,151.242L157.98,152.395C158.039,152.496 158.105,152.594 158.176,152.688L154.98,151.469C154.969,151.398 154.961,151.324 154.953,151.242" style="fill:rgb(107,108,110);"/>
        <path d="M72.969,119.797L79.199,122.168L78.695,122.191L72.684,119.902L72.75,119.879L72.969,119.797ZM154.949,151.023L157.828,152.121C157.879,152.219 157.926,152.309 157.98,152.395L154.953,151.242C154.949,151.172 154.949,151.102 154.949,151.023" style="fill:rgb(107,108,110);"/>
        <path d="M73.258,119.688L79.707,122.148L79.199,122.168L72.969,119.797L73.258,119.688ZM154.953,150.813L157.711,151.859C157.746,151.949 157.785,152.039 157.828,152.121L154.949,151.023C154.949,150.957 154.949,150.887 154.953,150.813" style="fill:rgb(105,106,108);"/>
        <path d="M73.543,119.582L80.211,122.125L79.707,122.148L73.258,119.688L73.543,119.582ZM154.969,150.602L157.609,151.609C157.641,151.695 157.676,151.781 157.711,151.859L154.953,150.813C154.957,150.742 154.965,150.676 154.969,150.602" style="fill:rgb(105,106,108);"/>
        <path d="M73.832,119.477L80.719,122.102L80.211,122.125L73.543,119.582L73.832,119.477ZM154.992,150.398L157.527,151.363C157.555,151.445 157.582,151.527 157.609,151.609L154.969,150.602C154.977,150.535 154.984,150.469 154.992,150.398" style="fill:rgb(103,104,107);"/>
        <path d="M74.121,119.371L81.227,122.078L80.719,122.102L73.832,119.477L74.121,119.371ZM155.023,150.191L157.461,151.121C157.484,151.203 157.504,151.285 157.527,151.363L154.992,150.398L155.023,150.191" style="fill:rgb(103,104,107);"/>
        <path d="M74.414,119.27L81.73,122.055L81.227,122.078L74.121,119.371L74.414,119.27ZM155.059,149.988L157.402,150.883C157.422,150.965 157.441,151.043 157.461,151.121L155.023,150.191L155.059,149.988" style="fill:rgb(103,104,107);"/>
        <path d="M74.711,119.168L82.238,122.035L81.73,122.055L74.414,119.27L74.711,119.168ZM155.098,149.789L157.355,150.648C157.371,150.73 157.387,150.809 157.402,150.883L155.059,149.988L155.098,149.789" style="fill:rgb(100,101,104);"/>
        <path d="M75.008,119.063L82.746,122.012L82.238,122.035L74.711,119.168L75.008,119.063ZM155.141,149.59L157.316,150.418C157.328,150.496 157.34,150.574 157.355,150.648L155.098,149.789L155.141,149.59" style="fill:rgb(100,101,104);"/>
        <path d="M75.305,118.961L83.254,121.988L82.746,122.012L75.008,119.063L75.305,118.961ZM155.188,149.391L157.281,150.191C157.293,150.27 157.305,150.344 157.316,150.418L155.141,149.59L155.188,149.391" style="fill:rgb(98,99,101);"/>
        <path d="M75.605,118.863L83.758,121.969L83.254,121.988L75.305,118.961L75.605,118.863ZM155.234,149.195L157.258,149.969C157.266,150.043 157.273,150.117 157.281,150.191L155.188,149.391L155.234,149.195" style="fill:rgb(98,99,101);"/>
        <path d="M75.91,118.762L84.266,121.945L83.758,121.969L75.605,118.863L75.91,118.762ZM155.289,149L157.234,149.742L157.258,149.969L155.234,149.195L155.289,149" style="fill:rgb(98,99,101);"/>
        <path d="M76.215,118.664L84.77,121.922L84.266,121.945L75.91,118.762L76.215,118.664ZM155.344,148.805L157.219,149.523L157.234,149.742L155.289,149L155.344,148.805" style="fill:rgb(96,97,99);"/>
        <path d="M76.523,118.566L85.277,121.898L84.77,121.922L76.215,118.664L76.523,118.566ZM155.398,148.613L157.207,149.301L157.219,149.523L155.344,148.805L155.398,148.613" style="fill:rgb(96,97,99);"/>
        <path d="M76.832,118.469L85.781,121.879L85.277,121.898L76.523,118.566L76.832,118.469ZM155.457,148.418L157.199,149.082L157.207,149.301L155.398,148.613L155.457,148.418" style="fill:rgb(96,97,99);"/>
        <path d="M77.148,118.371L86.289,121.855L85.781,121.879L76.832,118.469L77.148,118.371ZM155.52,148.227L157.195,148.863L157.199,149.082L155.457,148.418L155.52,148.227" style="fill:rgb(95,95,97);"/>
        <path d="M77.465,118.277L86.797,121.832L86.289,121.855L77.148,118.371L77.465,118.277ZM155.582,148.035L157.195,148.648L157.195,148.863L155.52,148.227L155.535,148.168L155.582,148.035" style="fill:rgb(95,95,97);"/>
        <path d="M77.785,118.184L87.301,121.809L86.797,121.832L77.465,118.277L77.785,118.184ZM155.645,147.844L157.195,148.438L157.195,148.648L155.582,148.035L155.645,147.844" style="fill:rgb(92,93,95);"/>
        <path d="M78.105,118.094L87.809,121.785L87.301,121.809L77.785,118.184L78.105,118.094ZM155.703,147.652L157.199,148.223L157.195,148.438L155.645,147.844L155.703,147.652" style="fill:rgb(92,93,95);"/>
        <path d="M78.438,118L88.316,121.766L87.809,121.785L78.105,118.094L78.438,118ZM155.762,147.457L157.207,148.012L157.199,148.223L155.703,147.652L155.762,147.457" style="fill:rgb(92,93,95);"/>
        <path d="M78.766,117.91L88.82,121.742L88.316,121.766L78.438,118L78.766,117.91ZM155.816,147.262L157.219,147.797L157.207,148.012L155.762,147.457L155.816,147.262" style="fill:rgb(90,91,93);"/>
        <path d="M79.102,117.824L89.328,121.719L88.82,121.742L78.766,117.91L79.102,117.824ZM155.867,147.07L157.23,147.586L157.219,147.797L155.816,147.262L155.867,147.07" style="fill:rgb(90,91,93);"/>
        <path d="M79.445,117.738L89.836,121.695L89.328,121.719L79.102,117.824L79.445,117.738ZM155.918,146.871L157.246,147.379L157.23,147.586L155.867,147.07L155.918,146.871" style="fill:rgb(87,88,91);"/>
        <path d="M79.793,117.656L90.34,121.676L89.836,121.695L79.445,117.738L79.793,117.656ZM155.965,146.672L157.262,147.168L157.246,147.379L155.918,146.871L155.965,146.672" style="fill:rgb(87,88,91);"/>
        <path d="M80.145,117.574L90.848,121.652L90.34,121.676L79.793,117.656L80.145,117.574ZM156.008,146.477L157.281,146.961L157.262,147.168L155.965,146.672L156.008,146.477" style="fill:rgb(87,88,91);"/>
        <path d="M80.504,117.496L91.352,121.629L90.848,121.652L80.145,117.574L80.504,117.496ZM156.047,146.277L157.305,146.754L157.281,146.961L156.008,146.477L156.047,146.277" style="fill:rgb(85,85,88);"/>
        <path d="M80.875,117.422L91.859,121.605L91.352,121.629L80.504,117.496L80.875,117.422ZM156.086,146.074L157.324,146.547L157.309,146.699L157.305,146.754L156.047,146.277L156.086,146.074" style="fill:rgb(85,85,88);"/>
        <path d="M81.246,117.352L92.363,121.586L91.859,121.605L80.875,117.422L81.246,117.352ZM156.121,145.871L157.344,146.34L157.324,146.547L156.086,146.074L156.121,145.871" style="fill:rgb(83,83,85);"/>
        <path d="M81.637,117.281L92.871,121.563L92.363,121.586L81.246,117.352C81.379,117.324 81.508,117.305 81.637,117.281ZM156.152,145.668L157.359,146.129L157.344,146.34L156.121,145.871L156.152,145.668" style="fill:rgb(83,83,85);"/>
        <path d="M82.035,117.219L93.379,121.539L92.871,121.563L81.637,117.281C81.77,117.258 81.902,117.238 82.035,117.219ZM156.18,145.465L157.371,145.918L157.359,146.129L156.152,145.668L156.18,145.465" style="fill:rgb(83,83,85);"/>
        <path d="M82.445,117.16L93.887,121.516L93.379,121.539L82.035,117.219L82.219,117.191L82.445,117.16ZM156.203,145.258L157.379,145.703L157.371,145.918L156.18,145.465L156.203,145.258" style="fill:rgb(81,82,83);"/>
        <path d="M82.859,117.102L94.391,121.496L93.887,121.516L82.445,117.16L82.859,117.102ZM156.227,145.051L157.383,145.492L157.379,145.703L156.203,145.258L156.227,145.051" style="fill:rgb(81,82,83);"/>
        <path d="M83.277,117.047L94.898,121.473L94.391,121.496L82.859,117.102L83.277,117.047ZM156.242,144.844L157.387,145.277L157.383,145.492L156.227,145.051L156.242,144.844" style="fill:rgb(79,79,81);"/>
        <path d="M83.699,116.992L95.402,121.449L94.898,121.473L83.277,117.047L83.699,116.992ZM156.254,144.633L157.383,145.063C157.383,145.133 157.387,145.203 157.387,145.277L156.242,144.844L156.254,144.633" style="fill:rgb(79,79,81);"/>
        <path d="M84.129,116.941L95.91,121.426L95.402,121.449L83.699,116.992L84.129,116.941ZM156.266,144.418L157.375,144.844L157.383,145.063L156.254,144.633L156.266,144.418" style="fill:rgb(79,79,81);"/>
        <path d="M84.563,116.891L96.418,121.406L95.91,121.426L84.129,116.941L84.563,116.891ZM156.27,144.207L157.367,144.625L157.375,144.844L156.266,144.418L156.27,144.207" style="fill:rgb(77,77,79);"/>
        <path d="M85,116.84L96.922,121.383L96.418,121.406L84.563,116.891L85,116.84ZM156.27,143.992L157.352,144.402L157.367,144.625L156.27,144.207L156.27,143.992" style="fill:rgb(77,77,79);"/>
        <path d="M85.441,116.793L97.43,121.359L96.922,121.383L85,116.84L85.441,116.793ZM156.266,143.773L157.336,144.18C157.34,144.254 157.348,144.328 157.352,144.402L156.27,143.992L156.266,143.773" style="fill:rgb(77,77,79);"/>
        <path d="M85.887,116.746L97.934,121.34L97.43,121.359L85.441,116.793L85.887,116.746ZM156.258,143.555L157.313,143.957L157.336,144.18L156.266,143.773L156.258,143.555" style="fill:rgb(73,73,75);"/>
        <path d="M86.34,116.703L98.441,121.316L97.934,121.34L85.887,116.746L86.34,116.703ZM156.242,143.336L157.285,143.73L157.313,143.957L156.258,143.555C156.254,143.48 156.246,143.406 156.242,143.336" style="fill:rgb(73,73,75);"/>
        <path d="M86.793,116.664L98.945,121.293L98.441,121.316L86.34,116.703L86.793,116.664ZM156.223,143.113L157.254,143.504L157.285,143.73L156.242,143.336C156.234,143.258 156.23,143.184 156.223,143.113" style="fill:rgb(71,71,73);"/>
        <path d="M87.258,116.625L99.531,121.301L99.145,121.285L98.945,121.293L86.793,116.664L87.258,116.625ZM156.195,142.887L157.219,143.273L157.254,143.504L156.223,143.113C156.215,143.035 156.203,142.961 156.195,142.887" style="fill:rgb(71,71,73);"/>
        <path d="M87.727,116.586L100.164,121.324L99.531,121.301L87.258,116.625L87.727,116.586ZM156.164,142.656L157.176,143.043C157.191,143.121 157.203,143.199 157.219,143.273L156.195,142.887C156.188,142.809 156.176,142.734 156.164,142.656" style="fill:rgb(71,71,73);"/>
        <path d="M88.199,116.551L100.809,121.355L100.164,121.324L87.727,116.586L88.199,116.551ZM156.125,142.426L157.133,142.813L157.176,143.043L156.164,142.656C156.152,142.582 156.137,142.504 156.125,142.426" style="fill:rgb(69,69,70);"/>
        <path d="M88.676,116.52L101.465,121.391L100.809,121.355L88.199,116.551L88.676,116.52ZM156.078,142.195L157.082,142.578L157.133,142.813L156.125,142.426C156.113,142.363 156.102,142.301 156.09,142.238L156.078,142.195" style="fill:rgb(69,69,70);"/>
        <path d="M89.164,116.488L102.133,121.43L101.465,121.391L88.676,116.52L89.164,116.488ZM156.027,141.961L157.027,142.344L157.082,142.578L156.078,142.195C156.063,142.117 156.047,142.039 156.027,141.961" style="fill:rgb(67,67,68);"/>
        <path d="M89.652,116.461L102.809,121.473L102.133,121.43L89.164,116.488L89.652,116.461ZM155.969,141.723L156.969,142.102L157.027,142.344L156.027,141.961C156.008,141.883 155.988,141.801 155.969,141.723" style="fill:rgb(67,67,68);"/>
        <path d="M90.152,116.434L103.496,121.52L102.809,121.473L89.652,116.461L90.152,116.434ZM155.898,141.48L156.902,141.863L156.969,142.102L155.969,141.723C155.945,141.641 155.922,141.563 155.898,141.48" style="fill:rgb(67,67,68);"/>
        <path d="M90.66,116.41L104.199,121.57L103.496,121.52L90.152,116.434L90.66,116.41ZM155.82,141.234L156.832,141.621L156.902,141.863L155.898,141.48C155.871,141.398 155.848,141.316 155.82,141.234" style="fill:rgb(65,64,66);"/>
        <path d="M91.168,116.391L104.91,121.625L104.199,121.57L90.66,116.41L91.168,116.391ZM155.734,140.988L156.758,141.379L156.832,141.621L155.82,141.234C155.793,141.152 155.766,141.07 155.734,140.988" style="fill:rgb(61,60,62);"/>
        <path d="M91.691,116.375L105.641,121.688L104.91,121.625L91.168,116.391L91.691,116.375ZM155.637,140.734L156.676,141.129L156.758,141.379L155.734,140.988C155.703,140.902 155.672,140.82 155.637,140.734" style="fill:rgb(61,60,62);"/>
        <path d="M92.219,116.359L106.383,121.754L105.641,121.688L91.691,116.375L92.219,116.359ZM155.531,140.48L156.586,140.883L156.676,141.129L155.637,140.734C155.602,140.648 155.566,140.563 155.531,140.48" style="fill:rgb(61,60,62);"/>
        <path d="M92.754,116.348L107.137,121.828L106.383,121.754L92.219,116.359L92.754,116.348ZM155.414,140.219L156.492,140.629C156.527,140.715 156.559,140.797 156.586,140.883L155.531,140.48C155.492,140.395 155.453,140.305 155.414,140.219" style="fill:rgb(61,60,62);"/>
        <path d="M93.297,116.34L107.906,121.906L107.137,121.828L92.754,116.348L93.297,116.34ZM155.285,139.957L156.395,140.379L156.492,140.629L155.414,140.219C155.371,140.133 155.328,140.043 155.285,139.957" style="fill:rgb(58,57,59);"/>
        <path d="M93.852,116.336L108.691,121.988L107.906,121.906L93.297,116.34L93.852,116.336ZM155.145,139.684L156.285,140.121L156.395,140.379L155.285,139.957C155.238,139.863 155.191,139.777 155.145,139.684" style="fill:rgb(56,55,57);"/>
        <path d="M94.41,116.336L109.492,122.078L108.691,121.988L93.852,116.336L94.41,116.336ZM154.988,139.41L156.176,139.863C156.215,139.949 156.25,140.035 156.285,140.121L155.145,139.684C155.094,139.594 155.043,139.504 154.988,139.41" style="fill:rgb(56,55,57);"/>
        <path d="M94.984,116.336L110.313,122.176L109.492,122.078L94.41,116.336L94.984,116.336ZM154.824,139.133L156.055,139.602L156.176,139.863L154.988,139.41C154.938,139.32 154.883,139.227 154.824,139.133" style="fill:rgb(56,55,57);"/>
        <path d="M95.566,116.344L111.148,122.281L110.313,122.176L94.984,116.336L95.566,116.344ZM154.641,138.848L155.926,139.336C155.969,139.426 156.016,139.516 156.055,139.602L154.824,139.133C154.766,139.035 154.703,138.941 154.641,138.848" style="fill:rgb(56,55,57);"/>
        <path d="M96.16,116.355L112.004,122.391C111.719,122.352 111.434,122.316 111.148,122.281L95.566,116.344L96.16,116.355ZM154.445,138.559L155.793,139.07L155.926,139.336L154.641,138.848C154.578,138.75 154.512,138.656 154.445,138.559" style="fill:rgb(53,52,53);"/>
        <path d="M96.766,116.367L112.875,122.508L112.004,122.391L96.16,116.355L96.766,116.367ZM154.23,138.262L155.652,138.801L155.793,139.07L154.445,138.559C154.375,138.457 154.305,138.359 154.23,138.262" style="fill:rgb(50,48,49);"/>
        <path d="M97.383,116.391L113.773,122.633L112.875,122.508L96.766,116.367L97.383,116.391ZM154,137.957L155.504,138.531L155.652,138.801L154.23,138.262C154.156,138.16 154.078,138.059 154,137.957" style="fill:rgb(50,48,49);"/>
        <path d="M98.016,116.414L114.691,122.766L113.773,122.633L97.383,116.391L98.016,116.414ZM153.746,137.645L155.344,138.254C155.398,138.344 155.449,138.438 155.504,138.531L154,137.957C153.918,137.852 153.836,137.75 153.746,137.645" style="fill:rgb(50,48,49);"/>
        <path d="M98.656,116.445L115.629,122.91L114.691,122.766L98.016,116.414L98.656,116.445ZM153.477,137.328L155.18,137.977C155.234,138.07 155.289,138.16 155.344,138.254L153.746,137.645C153.66,137.539 153.57,137.434 153.477,137.328" style="fill:rgb(47,44,46);"/>
        <path d="M99.316,116.477L116.594,123.063L115.629,122.91L98.656,116.445L99.316,116.477ZM153.18,137L155.004,137.695C155.063,137.789 155.121,137.883 155.18,137.977L153.477,137.328C153.379,137.219 153.281,137.109 153.18,137" style="fill:rgb(47,44,46);"/>
        <path d="M99.988,116.52L117.582,123.223C117.25,123.168 116.922,123.113 116.594,123.063L99.316,116.477L99.988,116.52ZM152.859,136.66L154.82,137.41C154.883,137.504 154.945,137.598 155.004,137.695L153.18,137C153.074,136.887 152.969,136.773 152.859,136.66" style="fill:rgb(47,44,46);"/>
        <path d="M100.68,116.566L118.598,123.395C118.258,123.336 117.918,123.277 117.582,123.223L99.988,116.52L100.68,116.566ZM152.508,136.313L154.629,137.117L154.82,137.41L152.859,136.66C152.742,136.543 152.629,136.426 152.508,136.313" style="fill:rgb(47,44,46);"/>
        <path d="M101.387,116.621L119.637,123.574C119.289,123.512 118.945,123.453 118.598,123.395L100.68,116.566L101.387,116.621ZM152.125,135.953L154.426,136.828C154.492,136.926 154.563,137.023 154.629,137.117L152.508,136.313C152.383,136.191 152.254,136.07 152.125,135.953" style="fill:rgb(44,42,43);"/>
        <path d="M102.117,116.684L120.719,123.77C120.355,123.703 119.996,123.641 119.637,123.574L101.387,116.621C101.629,116.641 101.871,116.664 102.117,116.684ZM151.699,135.574L154.211,136.531C154.281,136.629 154.355,136.727 154.426,136.828L152.125,135.953C151.988,135.824 151.844,135.699 151.699,135.574" style="fill:rgb(41,37,39);"/>
        <path d="M102.863,116.754L121.82,123.977C121.453,123.906 121.086,123.84 120.719,123.77L102.117,116.684C102.363,116.707 102.613,116.73 102.863,116.754ZM151.238,135.184L153.984,136.23L154.211,136.531L151.699,135.574C151.551,135.441 151.398,135.313 151.238,135.184" style="fill:rgb(41,37,39);"/>
        <path d="M103.637,116.832L122.965,124.195C122.582,124.121 122.199,124.047 121.82,123.977L102.863,116.754L103.637,116.832ZM150.73,134.773L153.75,135.926C153.832,136.027 153.91,136.129 153.984,136.23L151.238,135.184C151.074,135.047 150.906,134.91 150.73,134.773" style="fill:rgb(41,37,39);"/>
        <path d="M104.434,116.922L124.141,124.43C123.746,124.348 123.355,124.273 122.965,124.195L103.637,116.832C103.902,116.863 104.168,116.891 104.434,116.922ZM150.156,134.34L153.504,135.613C153.59,135.719 153.672,135.82 153.75,135.926L150.73,134.773C150.543,134.629 150.352,134.484 150.156,134.34" style="fill:rgb(41,37,39);"/>
        <path d="M105.262,117.02L125.359,124.676C124.953,124.594 124.547,124.512 124.141,124.43L104.434,116.922C104.711,116.953 104.984,116.988 105.262,117.02ZM149.543,133.891L153.246,135.301L153.277,135.336C153.355,135.43 153.43,135.523 153.504,135.613L150.156,134.34L150.102,134.297C149.918,134.16 149.73,134.027 149.543,133.891" style="fill:rgb(37,34,35);"/>
        <path d="M106.117,117.133L126.621,124.941C126.199,124.852 125.777,124.766 125.359,124.676L105.262,117.02C105.547,117.055 105.832,117.094 106.117,117.133ZM148.863,133.414L152.969,134.98C153.063,135.086 153.156,135.195 153.246,135.301L149.543,133.891C149.32,133.73 149.094,133.574 148.863,133.414" style="fill:rgb(34,31,31);"/>
        <path d="M107.008,117.258L127.926,125.227C127.602,125.152 127.273,125.082 126.941,125.012L126.621,124.941L106.117,117.133C106.414,117.172 106.711,117.215 107.008,117.258ZM148.102,132.91L152.664,134.648C152.77,134.758 152.871,134.871 152.969,134.98L148.863,133.414C148.613,133.246 148.359,133.078 148.102,132.91" style="fill:rgb(34,31,31);"/>
        <path d="M152.664,134.648L148.102,132.91C143.066,129.668 136.355,127.094 127.926,125.227L107.008,117.258L107.395,117.313C112.035,117.984 117.531,119.207 123.949,120.977C130.855,122.813 136.047,124.582 139.531,126.23C145.77,129.215 150.148,131.988 152.664,134.648" style="fill:rgb(34,31,31);"/>
        <path d="M150.344,55.297L144.602,55.539C144.234,55.723 144.234,55.906 144.539,56.09L145.762,56.273L149.551,56.395C151.688,56.578 152.91,56.883 153.34,57.313C154.07,58.047 154.805,58.535 155.598,58.719C156.332,58.961 156.516,58.777 156.211,58.105C155.293,56.578 153.34,55.602 150.344,55.297" style="fill:rgb(209,210,211);"/>
        <path d="M151.809,67.211C148.328,69.227 145.762,70.203 143.992,70.203C143.621,70.266 143.563,70.387 143.746,70.633L144.602,71.121C145.395,71.305 146.68,71.121 148.512,70.449C150.77,69.656 152.422,68.555 153.461,67.148L153.152,66.844L151.809,67.211" style="fill:rgb(254,254,254);"/>
        <path d="M143.809,71.367C143.867,71.121 143.563,70.938 142.828,70.875L138.188,70.816C137.633,71.121 137.82,71.367 138.797,71.609L143.809,71.367" style="fill:rgb(137,139,142);"/>
        <path d="M144.906,61.102C145.762,60.184 145.215,60 143.258,60.488C139.836,61.285 137.086,62.688 135.008,64.645C134.461,65.195 134.273,65.5 134.52,65.621C134.766,65.746 135.438,65.438 136.598,64.645C138.125,63.605 140.934,62.445 144.906,61.102" style="fill:rgb(137,139,142);"/>
        <path d="M140.754,78.879L138.734,79.555L132.746,80.898C132.199,80.957 131.77,81.203 131.402,81.629C130.977,82.059 131.039,82.301 131.465,82.363C134.824,82.789 138.004,82.059 141.055,80.227C142.098,79.555 142.523,79.125 142.34,78.82L140.754,78.879" style="fill:rgb(254,254,254);"/>
        <path d="M114.113,82.789C115.578,81.813 115.945,81.203 115.211,80.957C113.746,80.531 112.098,79.734 110.324,78.453C111.668,79.797 112.219,81.02 112.035,82.121L106.84,88.594C103.359,92.75 101.527,95.133 101.281,95.805C100.977,96.66 101.59,95.988 103.055,93.727C103.664,92.813 105.496,90.855 108.492,87.926L114.113,82.789" style="fill:rgb(34,31,31);"/>
        <path d="M104.824,108.453C99.387,108.027 95.234,107.965 92.422,108.332C90.652,108.637 89.855,109.063 89.98,109.551C90.16,110.102 96.211,110.773 108.246,111.508C118.695,113.156 128.043,115.969 136.289,120.063C139.773,121.832 141.914,122.75 142.645,122.871C143.438,122.996 142.828,122.383 140.813,121.102C135.559,117.984 129.387,115.176 122.301,112.668C115.148,110.164 109.348,108.758 104.824,108.453" style="fill:rgb(254,254,254);"/>
        <path d="M93.645,105.152L97.125,101.672C95.234,103.199 93.766,103.992 92.727,104.176L85.09,106.316L93.645,105.152" style="fill:rgb(34,31,31);"/>
        <path d="M144.113,78.82C147.473,76.621 149.367,75.152 149.734,74.422C150.16,73.688 148.023,74.727 143.379,77.477C144.176,77.844 144.418,78.27 144.113,78.82" style="fill:rgb(34,31,31);"/>
        <path d="M143.316,122.996C142.77,122.934 144.297,124.094 147.902,126.414C152.18,129.531 153.949,130.633 153.152,129.715C152.422,128.797 150.77,127.516 148.203,125.746C145.578,123.973 143.992,123.055 143.316,122.996" style="fill:rgb(100,101,104);"/>
        <path d="M153.949,130.633C153.523,130.328 153.828,130.754 154.988,132.035C156.82,134.055 158.164,135.766 158.961,137.168C159.938,138.941 160.672,141.508 161.219,144.867C161.832,146.945 162.441,147.984 162.992,148.043L163.664,147.434C164.824,144.563 163.785,141.078 160.426,136.926C158.164,134.055 156.027,131.977 153.949,130.633" style="fill:rgb(254,254,254);"/>
        <path d="M169.223,159.105C169.652,159.164 169.59,158.738 168.98,157.941L164.641,151.465C163.906,150.305 163.297,149.938 162.746,150.305C162.016,150.855 161.953,152.016 162.625,153.789C162.934,154.461 163.723,155.438 164.945,156.66C166.535,158.188 167.941,159.043 169.223,159.105" style="fill:rgb(254,254,254);"/>
        <path d="M178.023,167.535L176.313,166.863C175.887,167.105 176.066,167.656 176.984,168.574C177.898,169.492 178.754,170.039 179.551,170.102C180.957,170.285 180.406,169.43 178.023,167.535" style="fill:rgb(145,146,149);"/>
        <path d="M65.539,137.598C57.902,143.645 50.691,148.902 44.031,153.238C37.066,157.82 29.855,161.18 22.402,163.441C28.453,162.402 35.723,159.285 44.215,154.215C51.852,149.633 58.941,144.074 65.539,137.598" style="fill:rgb(150,152,156);"/>
        <path d="M22.281,159.961C23.012,159.348 23.074,159.043 22.402,159.105C21.484,159.164 20.629,158.859 19.777,158.246C19.164,157.82 18.797,157.762 18.738,157.941C18.371,158.922 18.98,159.594 20.508,159.961L22.281,159.961" style="fill:rgb(254,254,254);"/>
        <path d="M13.359,154.215C12.137,156.109 11.16,158.246 10.426,160.691C10,162.219 10.121,163.199 10.918,163.688L15.621,164.297L20.266,163.625C21.18,163.137 21.059,162.891 19.898,162.891C16.844,162.891 14.766,162.219 13.605,160.816C13.238,160.324 13.359,159.105 13.973,157.148C14.703,154.766 15.07,153.238 15.07,152.566C15.07,151.957 14.52,152.504 13.359,154.215" style="fill:rgb(34,31,31);"/>
        <path d="M101.281,26.762C98.961,30.367 98.105,33.852 98.777,37.211C99.387,40.387 101.16,42.895 104.152,44.664C107.023,46.438 111.484,47.047 117.656,46.559C125.539,46.008 129.512,44.359 129.57,41.672C130,37.211 128.285,32.324 124.438,27.129C120.285,21.57 115.824,19.004 110.996,19.555C107.27,20.043 104.031,22.426 101.281,26.762ZM116.738,27.438C116.926,28.105 116.863,28.656 116.617,29.023C116.371,29.391 115.762,29.574 114.844,29.574C113.563,29.637 112.461,29.27 111.422,28.598C110.875,28.23 110.629,27.617 110.691,26.762C110.691,26.031 111.117,25.359 112.035,24.746L114.602,24.93C115.641,25.602 116.371,26.398 116.738,27.438ZM120.773,41.184L123.035,41.426C123.703,41.609 123.949,41.914 123.891,42.223C123.77,42.77 122.605,43.137 120.469,43.32L117.473,43.137C116.801,42.953 116.68,42.711 116.984,42.281C117.777,41.551 119.063,41.184 120.773,41.184ZM108.004,22.914C109.039,22.242 109.285,22.305 108.734,22.977C107.695,24.688 106.781,26.578 105.988,28.598C104.336,32.691 103.969,35.621 104.887,37.395C105.863,39.352 107.211,40.695 108.859,41.426C112.586,43.078 115.578,43.93 117.902,43.992C120.102,44.055 122.422,43.688 124.805,42.895L126.637,42.832C125.965,44.117 123.34,45.031 118.816,45.461C114.234,45.887 110.566,45.582 107.82,44.543C105.191,43.504 103.176,42.039 101.711,40.082C100.426,38.371 99.816,36.66 99.879,35.012C99.938,31.836 101.406,28.781 104.398,25.906L108.004,22.914" style="fill:rgb(50,48,49);"/>
        <path d="M116.617,29.023C116.863,28.656 116.926,28.105 116.738,27.438C116.371,26.398 115.641,25.602 114.602,24.93L112.035,24.746C111.117,25.359 110.691,26.031 110.691,26.762C110.629,27.617 110.875,28.23 111.422,28.598C112.461,29.27 113.563,29.637 114.844,29.574C115.762,29.574 116.371,29.391 116.617,29.023" style="fill:rgb(254,254,254);"/>
        <path d="M123.031,41.426L120.773,41.184C119.063,41.184 117.777,41.551 116.984,42.281C116.68,42.711 116.801,42.953 117.473,43.137L120.469,43.32C122.605,43.137 123.77,42.77 123.891,42.223C123.949,41.914 123.703,41.609 123.031,41.426" style="fill:rgb(239,244,247);"/>
        <path d="M108.734,22.977C109.285,22.305 109.039,22.242 108.004,22.914L104.398,25.906C101.406,28.781 99.938,31.836 99.879,35.012C99.816,36.66 100.426,38.371 101.711,40.082C103.176,42.039 105.191,43.504 107.82,44.543C110.566,45.582 114.234,45.887 118.816,45.461C123.34,45.031 125.965,44.117 126.637,42.832L124.805,42.895C122.422,43.688 120.102,44.055 117.902,43.992C115.578,43.93 112.586,43.078 108.859,41.426C107.211,40.695 105.863,39.352 104.887,37.395C103.969,35.621 104.336,32.691 105.988,28.598C106.781,26.578 107.695,24.688 108.734,22.977" style="fill:rgb(157,159,161);"/>
        <path d="M108.734,22.977C109.285,22.305 109.039,22.242 108.004,22.914L104.398,25.906C101.406,28.781 99.938,31.836 99.879,35.012C99.816,36.66 100.426,38.371 101.711,40.082C103.176,42.039 105.191,43.504 107.82,44.543C110.566,45.582 114.234,45.887 118.816,45.461C123.34,45.031 125.965,44.117 126.637,42.832L124.805,42.895C122.422,43.688 120.102,44.055 117.902,43.992C115.578,43.93 112.586,43.078 108.859,41.426C107.211,40.695 105.863,39.352 104.887,37.395C103.969,35.621 104.336,32.691 105.988,28.598C106.781,26.578 107.695,24.688 108.734,22.977" style="fill:rgb(157,159,161);"/>
        <path d="M108.734,22.977C109.285,22.305 109.039,22.242 108.004,22.914L104.398,25.906C101.406,28.781 99.938,31.836 99.879,35.012C99.816,36.66 100.426,38.371 101.711,40.082C103.176,42.039 105.191,43.504 107.82,44.543C110.566,45.582 114.234,45.887 118.816,45.461C123.34,45.031 125.965,44.117 126.637,42.832L124.805,42.895C122.422,43.688 120.102,44.055 117.902,43.992C115.578,43.93 112.586,43.078 108.859,41.426C107.211,40.695 105.863,39.352 104.887,37.395C103.969,35.621 104.336,32.691 105.988,28.598C106.781,26.578 107.695,24.688 108.734,22.977" style="fill:rgb(157,159,161);"/>
        <path d="M108.734,22.977C109.285,22.305 109.039,22.242 108.004,22.914L104.398,25.906C101.406,28.781 99.938,31.836 99.879,35.012C99.816,36.66 100.426,38.371 101.711,40.082C103.176,42.039 105.191,43.504 107.82,44.543C110.566,45.582 114.234,45.887 118.816,45.461C123.34,45.031 125.965,44.117 126.637,42.832L124.805,42.895C122.422,43.688 120.102,44.055 117.902,43.992C115.578,43.93 112.586,43.078 108.859,41.426C107.211,40.695 105.863,39.352 104.887,37.395C103.969,35.621 104.336,32.691 105.988,28.598C106.781,26.578 107.695,24.688 108.734,22.977" style="fill:rgb(157,159,161);"/>
        <path d="M108.734,22.977C109.285,22.305 109.039,22.242 108.004,22.914L104.398,25.906C101.406,28.781 99.938,31.836 99.879,35.012C99.816,36.66 100.426,38.371 101.711,40.082C103.176,42.039 105.191,43.504 107.82,44.543C110.566,45.582 114.234,45.887 118.816,45.461C123.34,45.031 125.965,44.117 126.637,42.832L124.805,42.895C122.422,43.688 120.102,44.055 117.902,43.992C115.578,43.93 112.586,43.078 108.859,41.426C107.211,40.695 105.863,39.352 104.887,37.395C103.969,35.621 104.336,32.691 105.988,28.598C106.781,26.578 107.695,24.688 108.734,22.977" style="fill:rgb(155,157,159);"/>
        <path d="M108.734,22.977C109.285,22.305 109.039,22.242 108.004,22.914L104.398,25.906C101.406,28.781 99.938,31.836 99.879,35.012C99.816,36.66 100.426,38.371 101.711,40.082C103.176,42.039 105.191,43.504 107.82,44.543C110.566,45.582 114.234,45.887 118.816,45.461C123.34,45.031 125.965,44.117 126.637,42.832L124.805,42.895C122.422,43.688 120.102,44.055 117.902,43.992C115.578,43.93 112.586,43.078 108.859,41.426C107.211,40.695 105.863,39.352 104.887,37.395C103.969,35.621 104.336,32.691 105.988,28.598C106.781,26.578 107.695,24.688 108.734,22.977" style="fill:rgb(155,157,159);"/>
        <path d="M108.734,22.977C109.285,22.305 109.039,22.242 108.004,22.914L104.398,25.906C101.406,28.781 99.938,31.836 99.879,35.012C99.816,36.66 100.426,38.371 101.711,40.082C103.176,42.039 105.191,43.504 107.82,44.543C110.566,45.582 114.234,45.887 118.816,45.461C123.34,45.031 125.965,44.117 126.637,42.832L124.805,42.895C122.422,43.688 120.102,44.055 117.902,43.992C115.578,43.93 112.586,43.078 108.859,41.426C107.211,40.695 105.863,39.352 104.887,37.395C103.969,35.621 104.336,32.691 105.988,28.598C106.781,26.578 107.695,24.688 108.734,22.977" style="fill:rgb(152,155,158);"/>
        <path d="M108.734,22.977C109.285,22.305 109.039,22.242 108.004,22.914L104.398,25.906C101.406,28.781 99.938,31.836 99.879,35.012C99.816,36.66 100.426,38.371 101.711,40.082C103.176,42.039 105.191,43.504 107.82,44.543C110.566,45.582 114.234,45.887 118.816,45.461C123.34,45.031 125.965,44.117 126.637,42.832L124.805,42.895C122.422,43.688 120.102,44.055 117.902,43.992C115.578,43.93 112.586,43.078 108.859,41.426C107.211,40.695 105.863,39.352 104.887,37.395C103.969,35.621 104.336,32.691 105.988,28.598C106.781,26.578 107.695,24.688 108.734,22.977" style="fill:rgb(152,155,158);"/>
        <path d="M108.734,22.977C109.285,22.305 109.039,22.242 108.004,22.914L104.398,25.906C101.406,28.781 99.938,31.836 99.879,35.012C99.816,36.66 100.426,38.371 101.711,40.082C103.176,42.039 105.191,43.504 107.82,44.543C110.566,45.582 114.234,45.887 118.816,45.461C123.34,45.031 125.965,44.117 126.637,42.832L124.805,42.895C122.422,43.688 120.102,44.055 117.902,43.992C115.578,43.93 112.586,43.078 108.859,41.426C107.211,40.695 105.863,39.352 104.887,37.395C103.969,35.621 104.336,32.691 105.988,28.598C106.781,26.578 107.695,24.688 108.734,22.977" style="fill:rgb(152,155,158);"/>
        <path d="M100.77,38.609C100.57,38.18 100.383,37.746 100.211,37.297C99.957,36.527 99.848,35.762 99.879,35.012C99.938,31.836 101.406,28.781 104.398,25.906L108.004,22.914C109.039,22.242 109.285,22.305 108.734,22.977C107.695,24.688 106.781,26.578 105.988,28.598C104.336,32.691 103.969,35.621 104.887,37.395C105.863,39.352 107.211,40.695 108.859,41.426C112.586,43.078 115.578,43.93 117.902,43.992C120.102,44.055 122.422,43.688 124.805,42.895L126.637,42.832C125.965,44.117 123.34,45.031 118.816,45.461C114.234,45.887 110.566,45.582 107.82,44.543C105.191,43.504 103.176,42.039 101.711,40.082C101.34,39.59 101.027,39.102 100.77,38.609" style="fill:rgb(150,152,156);"/>
        <path d="M100.168,36.711C100.078,36.465 99.992,36.219 99.914,35.973C99.879,35.648 99.863,35.328 99.879,35.012C99.938,31.836 101.406,28.781 104.398,25.906L108.004,22.914C109.039,22.242 109.285,22.305 108.734,22.977C107.695,24.688 106.781,26.578 105.988,28.598C104.336,32.691 103.969,35.621 104.887,37.395C105.863,39.352 107.211,40.695 108.859,41.426C112.586,43.078 115.578,43.93 117.902,43.992C120.102,44.055 122.422,43.688 124.805,42.895L126.637,42.832C125.965,44.117 123.34,45.031 118.816,45.461C114.234,45.887 110.566,45.582 107.82,44.543C105.191,43.504 103.176,42.039 101.711,40.082L101.707,40.078C101.109,39.02 100.59,37.895 100.168,36.711" style="fill:rgb(150,152,156);"/>
        <path d="M100.32,36.656C100.156,36.191 100.004,35.73 99.871,35.262C99.871,35.18 99.875,35.094 99.879,35.012C99.938,31.836 101.406,28.781 104.398,25.906L108.004,22.914C109.039,22.242 109.285,22.305 108.734,22.977C107.695,24.688 106.781,26.578 105.988,28.598C104.336,32.691 103.969,35.621 104.887,37.395C105.863,39.352 107.211,40.695 108.859,41.426C112.586,43.078 115.578,43.93 117.902,43.992C120.102,44.055 122.422,43.688 124.805,42.895L126.637,42.832C125.965,44.117 123.34,45.031 118.816,45.461C114.234,45.887 110.566,45.582 107.82,44.543C105.59,43.66 103.801,42.473 102.414,40.938C101.578,39.621 100.871,38.188 100.32,36.656" style="fill:rgb(148,150,154);"/>
        <path d="M100.477,36.602C100.246,35.969 100.051,35.328 99.887,34.688C100.039,31.629 101.508,28.684 104.398,25.906L108.004,22.914C109.039,22.242 109.285,22.305 108.734,22.977C107.695,24.688 106.781,26.578 105.988,28.598C104.336,32.691 103.969,35.621 104.887,37.395C105.863,39.352 107.211,40.695 108.859,41.426C112.586,43.078 115.578,43.93 117.902,43.992C120.102,44.055 122.422,43.688 124.805,42.895L126.637,42.832C125.965,44.117 123.34,45.031 118.816,45.461C114.234,45.887 110.566,45.582 107.82,44.543C105.91,43.789 104.324,42.809 103.035,41.578C101.992,40.074 101.125,38.406 100.477,36.602" style="fill:rgb(148,150,154);"/>
        <path d="M100.629,36.547C100.348,35.754 100.113,34.961 99.926,34.16C100.215,31.289 101.672,28.523 104.398,25.906L108.004,22.914C109.039,22.242 109.285,22.305 108.734,22.977C107.695,24.688 106.781,26.578 105.988,28.598C104.336,32.691 103.969,35.621 104.887,37.395C105.863,39.352 107.211,40.695 108.859,41.426C112.586,43.078 115.578,43.93 117.902,43.992C120.102,44.055 122.422,43.688 124.805,42.895L126.637,42.832C125.965,44.117 123.34,45.031 118.816,45.461C114.234,45.887 110.566,45.582 107.82,44.543C106.184,43.895 104.781,43.086 103.605,42.09C102.371,40.441 101.359,38.586 100.629,36.547" style="fill:rgb(148,150,154);"/>
        <path d="M100.785,36.488C100.449,35.559 100.184,34.617 99.984,33.672C100.383,30.977 101.828,28.371 104.398,25.906L108.004,22.914C109.039,22.242 109.285,22.305 108.734,22.977C107.695,24.688 106.781,26.578 105.988,28.598C104.336,32.691 103.969,35.621 104.887,37.395C105.863,39.352 107.211,40.695 108.859,41.426C112.586,43.078 115.578,43.93 117.902,43.992C120.102,44.055 122.422,43.688 124.805,42.895L126.637,42.832C125.965,44.117 123.34,45.031 118.816,45.461C114.234,45.887 110.566,45.582 107.82,44.543C106.426,43.992 105.207,43.324 104.148,42.523C102.738,40.758 101.59,38.734 100.785,36.488" style="fill:rgb(146,148,151);"/>
        <path d="M100.938,36.434C100.559,35.371 100.266,34.293 100.063,33.215C100.551,30.684 101.973,28.234 104.398,25.906L108.004,22.914C109.039,22.242 109.285,22.305 108.734,22.977C107.695,24.688 106.781,26.578 105.988,28.598C104.336,32.691 103.969,35.621 104.887,37.395C105.863,39.352 107.211,40.695 108.859,41.426C112.586,43.078 115.578,43.93 117.902,43.992C120.102,44.055 122.422,43.688 124.805,42.895L126.637,42.832C125.965,44.117 123.34,45.031 118.816,45.461C114.234,45.887 110.566,45.582 107.82,44.543C106.652,44.082 105.605,43.535 104.672,42.902C103.094,41.039 101.813,38.867 100.938,36.434" style="fill:rgb(146,148,151);"/>
        <path d="M101.094,36.379C100.668,35.191 100.355,33.992 100.156,32.789C100.715,30.406 102.109,28.105 104.398,25.906L108.004,22.914C109.039,22.242 109.285,22.305 108.734,22.977C107.695,24.688 106.781,26.578 105.988,28.598C104.336,32.691 103.969,35.621 104.887,37.395C105.863,39.352 107.211,40.695 108.859,41.426C112.586,43.078 115.578,43.93 117.902,43.992C120.102,44.055 122.422,43.688 124.805,42.895L126.637,42.832C125.965,44.117 123.34,45.031 118.816,45.461C114.234,45.887 110.566,45.582 107.82,44.543C106.859,44.164 105.98,43.727 105.184,43.23C103.438,41.293 102.027,38.988 101.094,36.379" style="fill:rgb(145,146,149);"/>
        <path d="M101.246,36.324C100.781,35.02 100.453,33.703 100.258,32.383C100.875,30.145 102.238,27.98 104.398,25.906L108.004,22.914C109.039,22.242 109.285,22.305 108.734,22.977C107.695,24.688 106.781,26.578 105.988,28.598C104.336,32.691 103.969,35.621 104.887,37.395C105.863,39.352 107.211,40.695 108.859,41.426C112.586,43.078 115.578,43.93 117.902,43.992C120.102,44.055 122.422,43.688 124.805,42.895L126.637,42.832C125.965,44.117 123.34,45.031 118.816,45.461C114.234,45.887 110.566,45.582 107.82,44.543C107.055,44.238 106.34,43.902 105.676,43.527C103.77,41.52 102.242,39.094 101.246,36.324" style="fill:rgb(145,146,149);"/>
        <path d="M101.402,36.27C100.898,34.859 100.555,33.43 100.371,32.004C101.031,29.898 102.363,27.859 104.398,25.906L108.004,22.914C109.039,22.242 109.285,22.305 108.734,22.977C107.695,24.688 106.781,26.578 105.988,28.598C104.336,32.691 103.969,35.621 104.887,37.395C105.863,39.352 107.211,40.695 108.859,41.426C112.586,43.078 115.578,43.93 117.902,43.992C120.102,44.055 122.422,43.688 124.805,42.895L126.637,42.832C125.965,44.117 123.34,45.031 118.816,45.461C114.234,45.887 110.566,45.582 107.82,44.543C107.238,44.313 106.688,44.063 106.164,43.789C104.102,41.73 102.453,39.195 101.402,36.27" style="fill:rgb(145,146,149);"/>
        <path d="M101.559,36.215C101.016,34.703 100.664,33.168 100.492,31.641C101.188,29.664 102.48,27.746 104.398,25.906L108.004,22.914C109.039,22.242 109.285,22.305 108.734,22.977C107.695,24.688 106.781,26.578 105.988,28.598C104.336,32.691 103.969,35.621 104.887,37.395C105.863,39.352 107.211,40.695 108.859,41.426C112.586,43.078 115.578,43.93 117.902,43.992C120.102,44.055 122.422,43.688 124.805,42.895L126.637,42.832C125.965,44.117 123.34,45.031 118.816,45.461C114.234,45.887 110.566,45.582 107.82,44.543C107.414,44.383 107.023,44.215 106.648,44.031C104.43,41.93 102.66,39.285 101.559,36.215" style="fill:rgb(143,145,147);"/>
        <path d="M101.711,36.156C101.137,34.551 100.777,32.918 100.621,31.293C101.34,29.441 102.594,27.641 104.398,25.906L108.004,22.914C109.039,22.242 109.285,22.305 108.734,22.977C107.695,24.688 106.781,26.578 105.988,28.598C104.336,32.691 103.969,35.621 104.887,37.395C105.863,39.352 107.211,40.695 108.859,41.426C112.586,43.078 115.578,43.93 117.902,43.992C120.102,44.055 122.422,43.688 124.805,42.895L126.637,42.832C125.965,44.117 123.34,45.031 118.816,45.461C114.234,45.887 110.566,45.582 107.82,44.543C107.586,44.449 107.355,44.355 107.129,44.254C104.758,42.113 102.867,39.375 101.711,36.156" style="fill:rgb(143,145,147);"/>
        <path d="M101.867,36.102C101.258,34.402 100.891,32.68 100.754,30.961C101.492,29.227 102.699,27.535 104.398,25.906L108.004,22.914C109.039,22.242 109.285,22.305 108.734,22.977C107.695,24.688 106.781,26.578 105.988,28.598C104.336,32.691 103.969,35.621 104.887,37.395C105.863,39.352 107.211,40.695 108.859,41.426C112.586,43.078 115.578,43.93 117.902,43.992C120.102,44.055 122.422,43.688 124.805,42.895L126.637,42.832C125.965,44.117 123.34,45.031 118.816,45.461C114.234,45.887 110.566,45.582 107.82,44.543L107.609,44.457C105.086,42.289 103.07,39.461 101.867,36.102" style="fill:rgb(141,144,146);"/>
        <path d="M102.02,36.047C101.379,34.262 101.012,32.445 100.898,30.641C101.645,29.02 102.805,27.438 104.398,25.906L108.004,22.914C109.039,22.242 109.285,22.305 108.734,22.977C107.695,24.688 106.781,26.578 105.988,28.598C104.336,32.691 103.969,35.621 104.887,37.395C105.863,39.352 107.211,40.695 108.859,41.426C112.586,43.078 115.578,43.93 117.902,43.992C120.102,44.055 122.422,43.688 124.805,42.895L126.637,42.832C125.965,44.117 123.34,45.031 118.816,45.461C114.379,45.875 110.797,45.602 108.078,44.637C105.406,42.453 103.27,39.535 102.02,36.047" style="fill:rgb(141,144,146);"/>
        <path d="M102.176,35.992C101.504,34.121 101.137,32.219 101.047,30.332C101.793,28.816 102.906,27.34 104.398,25.906L108.004,22.914C109.039,22.242 109.285,22.305 108.734,22.977C107.695,24.688 106.781,26.578 105.988,28.598C104.336,32.691 103.969,35.621 104.887,37.395C105.863,39.352 107.211,40.695 108.859,41.426C112.586,43.078 115.578,43.93 117.902,43.992C120.102,44.055 122.422,43.688 124.805,42.895L126.637,42.832C125.965,44.117 123.34,45.031 118.816,45.461C114.621,45.852 111.191,45.629 108.531,44.789C105.719,42.594 103.469,39.602 102.176,35.992" style="fill:rgb(141,144,146);"/>
        <path d="M102.328,35.938C101.629,33.984 101.262,32 101.195,30.035C101.941,28.625 103.004,27.246 104.398,25.906L108.004,22.914C109.039,22.242 109.285,22.305 108.734,22.977C107.695,24.688 106.781,26.578 105.988,28.598C104.336,32.691 103.969,35.621 104.887,37.395C105.863,39.352 107.211,40.695 108.859,41.426C112.586,43.078 115.578,43.93 117.902,43.992C120.102,44.055 122.422,43.688 124.805,42.895L126.637,42.832C125.965,44.117 123.34,45.031 118.816,45.461C114.852,45.828 111.57,45.652 108.977,44.922C106.023,42.723 103.664,39.66 102.328,35.938" style="fill:rgb(139,142,144);"/>
        <path d="M102.484,35.879C101.758,33.855 101.391,31.785 101.355,29.746C102.086,28.438 103.102,27.152 104.398,25.906L108.004,22.914C109.039,22.242 109.285,22.305 108.734,22.977C107.695,24.688 106.781,26.578 105.988,28.598C104.336,32.691 103.969,35.621 104.887,37.395C105.863,39.352 107.211,40.695 108.859,41.426C112.586,43.078 115.578,43.93 117.902,43.992C120.102,44.055 122.422,43.688 124.805,42.895L126.637,42.832C125.965,44.117 123.34,45.031 118.816,45.461C115.07,45.809 111.938,45.668 109.414,45.039C106.328,42.844 103.859,39.715 102.484,35.879" style="fill:rgb(139,142,144);"/>
        <path d="M102.641,35.824C101.887,33.723 101.523,31.578 101.516,29.465C102.234,28.254 103.191,27.066 104.398,25.906L108.004,22.914C109.039,22.242 109.285,22.305 108.734,22.977C107.695,24.688 106.781,26.578 105.988,28.598C104.336,32.691 103.969,35.621 104.887,37.395C105.863,39.352 107.211,40.695 108.859,41.426C112.586,43.078 115.578,43.93 117.902,43.992C120.102,44.055 122.422,43.688 124.805,42.895L126.637,42.832C125.965,44.117 123.34,45.031 118.816,45.461C115.285,45.789 112.297,45.684 109.852,45.141C106.633,42.957 104.055,39.77 102.641,35.824" style="fill:rgb(137,139,142);"/>
        <path d="M102.793,35.77C102.016,33.598 101.656,31.375 101.68,29.191C102.379,28.074 103.281,26.977 104.398,25.906L108.004,22.914C109.039,22.242 109.285,22.305 108.734,22.977C107.695,24.688 106.781,26.578 105.988,28.598C104.336,32.691 103.969,35.621 104.887,37.395C105.863,39.352 107.211,40.695 108.859,41.426C112.586,43.078 115.578,43.93 117.902,43.992C120.102,44.055 122.422,43.688 124.805,42.895L126.637,42.832C125.965,44.117 123.34,45.031 118.816,45.461C115.492,45.77 112.645,45.695 110.285,45.23C106.934,43.063 104.246,39.816 102.793,35.77" style="fill:rgb(137,139,142);"/>
        <path d="M102.949,35.715C102.145,33.473 101.793,31.176 101.852,28.93C102.523,27.902 103.371,26.895 104.398,25.906L108.004,22.914C109.039,22.242 109.285,22.305 108.734,22.977C107.695,24.688 106.781,26.578 105.988,28.598C104.336,32.691 103.969,35.621 104.887,37.395C105.863,39.352 107.211,40.695 108.859,41.426C112.586,43.078 115.578,43.93 117.902,43.992C120.102,44.055 122.422,43.688 124.805,42.895L126.637,42.832C125.965,44.117 123.34,45.031 118.816,45.461C115.691,45.75 112.988,45.703 110.719,45.313C107.238,43.16 104.438,39.863 102.949,35.715" style="fill:rgb(137,139,142);"/>
        <path d="M103.102,35.66C102.273,33.348 101.93,30.984 102.02,28.672C102.664,27.734 103.457,26.813 104.398,25.906L108.004,22.914C109.039,22.242 109.285,22.305 108.734,22.977C107.695,24.688 106.781,26.578 105.988,28.598C104.336,32.691 103.969,35.621 104.887,37.395C105.863,39.352 107.211,40.695 108.859,41.426C112.586,43.078 115.578,43.93 117.902,43.992C120.102,44.055 122.422,43.688 124.805,42.895L126.637,42.832C125.965,44.117 123.34,45.031 118.816,45.461C115.887,45.734 113.332,45.707 111.152,45.383C107.543,43.258 104.629,39.91 103.102,35.66" style="fill:rgb(135,137,139);"/>
        <path d="M103.258,35.605C102.406,33.227 102.07,30.793 102.199,28.422C102.809,27.57 103.539,26.73 104.398,25.906L108.004,22.914C109.039,22.242 109.285,22.305 108.734,22.977C107.695,24.688 106.781,26.578 105.988,28.598C104.336,32.691 103.969,35.621 104.887,37.395C105.863,39.352 107.211,40.695 108.859,41.426C112.586,43.078 115.578,43.93 117.902,43.992C120.102,44.055 122.422,43.688 124.805,42.895L126.637,42.832C125.965,44.117 123.34,45.031 118.816,45.461C116.078,45.715 113.668,45.711 111.582,45.441C107.844,43.352 104.816,39.949 103.258,35.605" style="fill:rgb(135,137,139);"/>
        <path d="M103.41,35.547C102.535,33.109 102.215,30.605 102.379,28.176C102.949,27.41 103.621,26.652 104.398,25.906L108.004,22.914C109.039,22.242 109.285,22.305 108.734,22.977C107.695,24.688 106.781,26.578 105.988,28.598C104.336,32.691 103.969,35.621 104.887,37.395C105.863,39.352 107.211,40.695 108.859,41.426C112.586,43.078 115.578,43.93 117.902,43.992C120.102,44.055 122.422,43.688 124.805,42.895L126.637,42.832C125.965,44.117 123.34,45.031 118.816,45.461C116.27,45.695 114.004,45.711 112.023,45.492C108.152,43.441 105.008,39.996 103.41,35.547" style="fill:rgb(135,137,139);"/>
        <path d="M103.566,35.492C102.668,32.992 102.355,30.422 102.559,27.938C103.09,27.25 103.703,26.574 104.398,25.906L108.004,22.914C109.039,22.242 109.285,22.305 108.734,22.977C107.695,24.688 106.781,26.578 105.988,28.598C104.336,32.691 103.969,35.621 104.887,37.395C105.863,39.352 107.211,40.695 108.859,41.426C112.586,43.078 115.578,43.93 117.902,43.992C120.102,44.055 122.422,43.688 124.805,42.895L126.637,42.832C125.965,44.117 123.34,45.031 118.816,45.461C116.457,45.68 114.34,45.707 112.465,45.535C108.465,43.531 105.195,40.039 103.566,35.492" style="fill:rgb(133,135,137);"/>
        <path d="M103.723,35.438C102.801,32.875 102.504,30.242 102.746,27.699C103.234,27.094 103.785,26.496 104.398,25.906L108.004,22.914C109.039,22.242 109.285,22.305 108.734,22.977C107.695,24.688 106.781,26.578 105.988,28.598C104.336,32.691 103.969,35.621 104.887,37.395C105.863,39.352 107.211,40.695 108.859,41.426C112.586,43.078 115.578,43.93 117.902,43.992C120.102,44.055 122.422,43.688 124.805,42.895L126.637,42.832C125.965,44.117 123.34,45.031 118.816,45.461C116.645,45.66 114.68,45.699 112.918,45.574C108.781,43.617 105.387,40.086 103.723,35.438" style="fill:rgb(133,135,137);"/>
        <path d="M103.875,35.383C102.934,32.762 102.648,30.063 102.934,27.469C103.375,26.941 103.863,26.422 104.398,25.906L108.004,22.914C109.039,22.242 109.285,22.305 108.734,22.977C107.695,24.688 106.781,26.578 105.988,28.598C104.336,32.691 103.969,35.621 104.887,37.395C105.863,39.352 107.211,40.695 108.859,41.426C112.586,43.078 115.578,43.93 117.902,43.992C120.102,44.055 122.422,43.688 124.805,42.895L126.637,42.832C125.965,44.117 123.34,45.031 118.816,45.461C116.832,45.645 115.016,45.691 113.375,45.602C109.098,43.707 105.578,40.133 103.875,35.383" style="fill:rgb(132,133,135);"/>
        <path d="M104.031,35.328C103.07,32.648 102.797,29.891 103.125,27.246C103.516,26.797 103.938,26.348 104.398,25.906L108.004,22.914C109.039,22.242 109.285,22.305 108.734,22.977C107.695,24.688 106.781,26.578 105.988,28.598C104.5,32.285 104.055,35.031 104.652,36.836C104.422,36.348 104.215,35.844 104.031,35.328ZM113.84,45.625C110.551,44.262 107.684,41.906 105.715,38.785C106.578,40.004 107.633,40.883 108.859,41.426C112.586,43.078 115.578,43.93 117.902,43.992C120.102,44.055 122.422,43.688 124.805,42.895L126.637,42.832C125.965,44.117 123.34,45.031 118.816,45.461C117.02,45.629 115.359,45.684 113.84,45.625" style="fill:rgb(132,133,135);"/>
        <path d="M104.184,35.27C103.203,32.535 102.949,29.715 103.32,27.02C103.656,26.648 104.016,26.277 104.398,25.906L108.004,22.914C109.039,22.242 109.285,22.305 108.734,22.977C107.695,24.688 106.781,26.578 105.988,28.598C104.719,31.742 104.207,34.203 104.453,35.977C104.359,35.742 104.27,35.508 104.184,35.27ZM114.32,45.641C111.379,44.508 108.758,42.59 106.789,40.035C107.41,40.629 108.105,41.09 108.859,41.426C112.586,43.078 115.578,43.93 117.902,43.992C120.102,44.055 122.422,43.688 124.805,42.895L126.637,42.832C125.965,44.117 123.34,45.031 118.816,45.461C117.203,45.609 115.703,45.672 114.32,45.641" style="fill:rgb(132,133,135);"/>
        <path d="M104.34,35.215C103.336,32.422 103.102,29.547 103.52,26.805C103.797,26.504 104.09,26.203 104.398,25.906L108.004,22.914C109.039,22.242 109.285,22.305 108.734,22.977C107.695,24.688 106.781,26.578 105.988,28.598C104.855,31.406 104.324,33.672 104.402,35.387L104.34,35.215ZM114.813,45.645C111.992,44.648 109.449,42.922 107.469,40.613C107.902,40.938 108.367,41.211 108.859,41.426C112.586,43.078 115.578,43.93 117.902,43.992C120.102,44.055 122.422,43.688 124.805,42.895L126.637,42.832C125.965,44.117 123.34,45.031 118.816,45.461C117.395,45.594 116.059,45.656 114.813,45.645" style="fill:rgb(130,132,134);"/>
        <path d="M104.395,34.879C103.461,32.121 103.27,29.281 103.719,26.59C103.938,26.359 104.164,26.133 104.398,25.906L108.004,22.914C109.039,22.242 109.285,22.305 108.734,22.977C107.695,24.688 106.781,26.578 105.988,28.598C104.965,31.137 104.434,33.234 104.395,34.879ZM115.324,45.645C112.555,44.75 110.031,43.156 108.027,40.992C108.293,41.156 108.57,41.301 108.859,41.426C112.586,43.078 115.578,43.93 117.902,43.992C120.102,44.055 122.422,43.688 124.805,42.895L126.637,42.832C125.965,44.117 123.34,45.031 118.816,45.461C117.59,45.574 116.426,45.637 115.324,45.645" style="fill:rgb(130,132,134);"/>
        <path d="M104.418,34.418C103.582,31.73 103.449,28.984 103.922,26.379C104.078,26.223 104.234,26.063 104.398,25.906L108.004,22.914C109.039,22.242 109.285,22.305 108.734,22.977C107.695,24.688 106.781,26.578 105.988,28.598C105.055,30.906 104.531,32.848 104.418,34.418ZM115.855,45.637C113.094,44.836 110.555,43.336 108.512,41.262C108.629,41.32 108.742,41.375 108.859,41.426C112.586,43.078 115.578,43.93 117.902,43.992C120.102,44.055 122.422,43.688 124.805,42.895L126.637,42.832C125.965,44.117 123.34,45.031 118.816,45.461C117.785,45.555 116.797,45.617 115.855,45.637" style="fill:rgb(128,130,133);"/>
        <path d="M104.461,33.984C103.711,31.367 103.633,28.695 104.129,26.172L104.398,25.906L108.004,22.914C109.039,22.242 109.285,22.305 108.734,22.977C107.695,24.688 106.781,26.578 105.988,28.598C105.141,30.699 104.629,32.492 104.461,33.984ZM116.414,45.621C113.629,44.902 111.047,43.477 108.957,41.469C112.637,43.094 115.602,43.934 117.902,43.992C120.102,44.055 122.422,43.688 124.805,42.895L126.637,42.832C125.965,44.117 123.34,45.031 118.816,45.461C117.988,45.535 117.188,45.59 116.414,45.621" style="fill:rgb(128,130,133);"/>
        <path d="M104.516,33.563C103.848,31.012 103.82,28.414 104.34,25.965L104.398,25.906L108.004,22.914C109.039,22.242 109.285,22.305 108.734,22.977C107.695,24.688 106.781,26.578 105.988,28.598C105.219,30.504 104.727,32.16 104.516,33.563ZM117.008,45.594C114.188,44.973 111.559,43.617 109.41,41.668C112.883,43.16 115.695,43.934 117.902,43.992C120.102,44.055 122.422,43.688 124.805,42.895L126.637,42.832C125.965,44.117 123.34,45.031 118.816,45.461C118.199,45.52 117.594,45.563 117.008,45.594" style="fill:rgb(128,130,133);"/>
        <path d="M104.582,33.156C103.996,30.672 104.012,28.156 104.547,25.785L108.004,22.914C109.039,22.242 109.285,22.305 108.734,22.977C107.695,24.688 106.781,26.578 105.988,28.598C105.289,30.32 104.82,31.844 104.582,33.156ZM117.648,45.555C114.785,45.035 112.098,43.762 109.887,41.871C113.141,43.23 115.797,43.938 117.902,43.992C120.102,44.055 122.422,43.688 124.805,42.895L126.637,42.832C125.965,44.117 123.34,45.031 118.816,45.461C118.422,45.496 118.031,45.527 117.648,45.555" style="fill:rgb(125,128,131);"/>
        <path d="M104.66,32.758C104.148,30.344 104.203,27.906 104.758,25.609L108.004,22.914C109.039,22.242 109.285,22.305 108.734,22.977C107.695,24.688 106.781,26.578 105.988,28.598C105.359,30.152 104.918,31.539 104.66,32.758ZM118.359,45.5C115.445,45.102 112.691,43.91 110.402,42.082C113.422,43.305 115.91,43.941 117.902,43.992C120.102,44.055 122.422,43.688 124.805,42.895L126.637,42.832C125.965,44.117 123.34,45.031 118.816,45.461C118.664,45.473 118.512,45.488 118.359,45.5" style="fill:rgb(125,128,131);"/>
        <path d="M104.75,32.363C104.305,30.016 104.402,27.656 104.969,25.434L108.004,22.914C109.039,22.242 109.285,22.305 108.734,22.977C107.695,24.688 106.781,26.578 105.988,28.598C105.426,29.984 105.016,31.242 104.75,32.363ZM119.16,45.426C116.18,45.164 113.336,44.07 110.957,42.305C113.727,43.383 116.031,43.941 117.902,43.992C120.102,44.055 122.422,43.688 124.805,42.895L126.637,42.832C125.984,44.082 123.469,44.984 119.16,45.426" style="fill:rgb(123,125,129);"/>
        <path d="M104.848,31.973C104.469,29.688 104.605,27.402 105.188,25.254L108.004,22.914C109.039,22.242 109.285,22.305 108.734,22.977C107.695,24.688 106.781,26.578 105.988,28.598C105.492,29.824 105.109,30.953 104.848,31.973ZM120.113,45.316C117.035,45.23 114.063,44.246 111.559,42.531C114.063,43.461 116.172,43.949 117.902,43.992C120.102,44.055 122.422,43.688 124.805,42.895L126.637,42.832C126.031,43.988 123.84,44.848 120.113,45.316" style="fill:rgb(123,125,129);"/>
        <path d="M104.953,31.578C104.641,29.363 104.813,27.148 105.41,25.07L108.004,22.914C109.039,22.242 109.285,22.305 108.734,22.977C107.695,24.688 106.781,26.578 105.988,28.598C105.555,29.672 105.211,30.664 104.953,31.578ZM121.336,45.141C118.094,45.301 114.922,44.445 112.23,42.773C114.441,43.547 116.328,43.953 117.902,43.992C120.102,44.055 122.422,43.688 124.805,42.895L126.637,42.832C126.102,43.855 124.324,44.645 121.336,45.141" style="fill:rgb(123,125,129);"/>
        <path d="M105.066,31.188C104.816,29.035 105.023,26.891 105.633,24.883L108.004,22.914C109.039,22.242 109.285,22.305 108.734,22.977C107.695,24.688 106.781,26.578 105.988,28.598C105.613,29.52 105.309,30.383 105.066,31.188ZM123.027,44.797C119.508,45.363 115.98,44.691 112.988,43.027C114.875,43.637 116.508,43.957 117.902,43.992C120.102,44.055 122.422,43.688 124.805,42.895L126.637,42.832C126.215,43.645 125.004,44.309 123.027,44.797" style="fill:rgb(122,123,126);"/>
        <path d="M105.191,30.785C105,28.699 105.246,26.625 105.867,24.688L108.004,22.914C109.039,22.242 109.285,22.305 108.734,22.977C107.695,24.688 106.781,26.578 105.988,28.598C105.676,29.367 105.41,30.098 105.191,30.785ZM124.77,44.242C121.02,45.309 117.156,44.887 113.852,43.289C115.379,43.727 116.727,43.961 117.902,43.992C120.102,44.055 122.422,43.688 124.805,42.895L126.637,42.832C126.355,43.367 125.73,43.844 124.77,44.242" style="fill:rgb(122,123,126);"/>
        <path d="M105.324,30.379C105.191,28.355 105.469,26.359 106.105,24.488L108.004,22.914C109.039,22.242 109.285,22.305 108.734,22.977C107.695,24.688 106.781,26.578 105.988,28.598C105.738,29.219 105.516,29.813 105.324,30.379ZM125.684,43.777C122.023,45.082 118.195,44.902 114.855,43.555C115.977,43.824 116.992,43.969 117.902,43.992C120.102,44.055 122.422,43.688 124.805,42.895L126.637,42.832C126.457,43.176 126.141,43.492 125.684,43.777" style="fill:rgb(121,121,124);"/>
        <path d="M105.469,29.961C105.395,28.008 105.703,26.082 106.352,24.285L108.004,22.914C109.039,22.242 109.285,22.305 108.734,22.977C107.695,24.688 106.781,26.578 105.988,28.598C105.797,29.066 105.621,29.523 105.469,29.961ZM126.16,43.426C125.996,43.488 125.828,43.551 125.664,43.613C122.422,44.773 119.043,44.762 115.996,43.793C116.676,43.91 117.309,43.977 117.902,43.992C120.102,44.055 122.422,43.688 124.805,42.895L126.637,42.832C126.527,43.039 126.367,43.234 126.16,43.426" style="fill:rgb(121,121,124);"/>
        <path d="M105.621,29.535C105.605,27.652 105.945,25.801 106.605,24.074L108.004,22.914C109.039,22.242 109.285,22.305 108.734,22.977C107.695,24.688 106.781,26.578 105.988,28.598C105.859,28.914 105.734,29.23 105.621,29.535ZM126.438,43.133C126.168,43.246 125.891,43.355 125.609,43.457C122.805,44.465 119.898,44.578 117.199,43.953C117.438,43.977 117.672,43.988 117.902,43.992C120.102,44.055 122.422,43.688 124.805,42.895L126.637,42.832C126.586,42.934 126.516,43.035 126.438,43.133" style="fill:rgb(121,121,124);"/>
        <path d="M105.789,29.098C105.824,27.285 106.195,25.508 106.867,23.855L108.004,22.914C109.039,22.242 109.285,22.305 108.734,22.977C107.695,24.688 106.781,26.578 105.988,28.598C105.918,28.766 105.852,28.934 105.789,29.098ZM126.613,42.875C126.27,43.031 125.914,43.172 125.551,43.305C123.148,44.164 120.664,44.367 118.309,44C120.387,44.008 122.57,43.641 124.805,42.895L126.637,42.832L126.613,42.875" style="fill:rgb(119,120,122);"/>
        <path d="M105.969,28.641C106.059,26.902 106.461,25.207 107.141,23.629L108.004,22.914C109.039,22.242 109.285,22.305 108.734,22.977C107.695,24.688 106.781,26.578 105.988,28.598L105.969,28.641ZM126.273,42.844C126.02,42.953 125.762,43.055 125.496,43.148C123.496,43.867 121.441,44.121 119.449,43.969C121.18,43.863 122.977,43.504 124.805,42.895L126.273,42.844" style="fill:rgb(119,120,122);"/>
        <path d="M106.168,28.141C106.313,26.488 106.742,24.883 107.422,23.395L108.004,22.914C109.039,22.242 109.285,22.305 108.734,22.977C107.773,24.559 106.922,26.297 106.168,28.141ZM125.801,42.859C125.684,42.906 125.563,42.949 125.441,42.992C123.887,43.551 122.301,43.824 120.734,43.844C122.063,43.672 123.426,43.355 124.805,42.895L125.801,42.859" style="fill:rgb(119,120,122);"/>
        <path d="M106.391,27.605C106.59,26.051 107.043,24.543 107.723,23.145L108.004,22.914C109.039,22.242 109.285,22.305 108.734,22.977C107.867,24.402 107.086,25.957 106.391,27.605ZM125.277,42.879C124.301,43.219 123.309,43.449 122.324,43.57C123.141,43.398 123.969,43.172 124.805,42.895L125.277,42.879" style="fill:rgb(117,118,121);"/>
        <path d="M106.645,27.016C106.895,25.574 107.363,24.184 108.031,22.895C109.043,22.242 109.281,22.309 108.734,22.977C107.973,24.23 107.277,25.586 106.645,27.016" style="fill:rgb(117,118,121);"/>
        <path d="M106.941,26.359C107.227,25.086 107.688,23.863 108.309,22.723C109.082,22.262 109.227,22.375 108.734,22.977C108.09,24.035 107.492,25.172 106.941,26.359" style="fill:rgb(115,116,119);"/>
        <path d="M107.309,25.594C107.609,24.539 108.039,23.523 108.582,22.57C109.109,22.301 109.16,22.453 108.734,22.977C108.23,23.809 107.754,24.684 107.309,25.594" style="fill:rgb(115,116,119);"/>
        <path d="M107.805,24.617C108.082,23.871 108.43,23.148 108.836,22.461C109.113,22.371 109.078,22.555 108.734,22.977C108.414,23.508 108.102,24.055 107.805,24.617" style="fill:rgb(115,116,119);"/>
        <path d="M108.707,23.02C108.805,22.836 108.91,22.656 109.016,22.477C109.043,22.547 108.949,22.715 108.734,22.977L108.707,23.02" style="fill:rgb(112,113,117);"/>
    </g>
</svg>
